Doto-ThinSquare.ufo
<glyph name="quotedbl" format="2">
  <advance width="600"/>
  <unicode hex="0022"/>
  <outline>
    <contour>
      <point x="136" y="665" type="line" smooth="yes"/>
      <point x="164" y="665" type="line" smooth="yes"/>
      <point x="165" y="665"/>
      <point x="165" y="665"/>
      <point x="165" y="664" type="curve" smooth="yes"/>
      <point x="165" y="636" type="line" smooth="yes"/>
      <point x="165" y="635"/>
      <point x="165" y="635"/>
      <point x="164" y="635" type="curve" smooth="yes"/>
      <point x="136" y="635" type="line" smooth="yes"/>
      <point x="135" y="635"/>
      <point x="135" y="635"/>
      <point x="135" y="636" type="curve" smooth="yes"/>
      <point x="135" y="664" type="line" smooth="yes"/>
      <point x="135" y="665"/>
      <point x="135" y="665"/>
      <point x="136" y="665" type="curve" smooth="yes"/>
    </contour>
    <contour>
      <point x="336" y="665" type="line" smooth="yes"/>
      <point x="364" y="665" type="line" smooth="yes"/>
      <point x="365" y="665"/>
      <point x="365" y="665"/>
      <point x="365" y="664" type="curve" smooth="yes"/>
      <point x="365" y="636" type="line" smooth="yes"/>
      <point x="365" y="635"/>
      <point x="365" y="635"/>
      <point x="364" y="635" type="curve" smooth="yes"/>
      <point x="336" y="635" type="line" smooth="yes"/>
      <point x="335" y="635"/>
      <point x="335" y="635"/>
      <point x="335" y="636" type="curve" smooth="yes"/>
      <point x="335" y="664" type="line" smooth="yes"/>
      <point x="335" y="665"/>
      <point x="335" y="665"/>
      <point x="336" y="665" type="curve" smooth="yes"/>
    </contour>
    <contour>
      <point x="136" y="565" type="line" smooth="yes"/>
      <point x="164" y="565" type="line" smooth="yes"/>
      <point x="165" y="565"/>
      <point x="165" y="565"/>
      <point x="165" y="564" type="curve" smooth="yes"/>
      <point x="165" y="536" type="line" smooth="yes"/>
      <point x="165" y="535"/>
      <point x="165" y="535"/>
      <point x="164" y="535" type="curve" smooth="yes"/>
      <point x="136" y="535" type="line" smooth="yes"/>
      <point x="135" y="535"/>
      <point x="135" y="535"/>
      <point x="135" y="536" type="curve" smooth="yes"/>
      <point x="135" y="564" type="line" smooth="yes"/>
      <point x="135" y="565"/>
      <point x="135" y="565"/>
      <point x="136" y="565" type="curve" smooth="yes"/>
    </contour>
    <contour>
      <point x="336" y="565" type="line" smooth="yes"/>
      <point x="364" y="565" type="line" smooth="yes"/>
      <point x="365" y="565"/>
      <point x="365" y="565"/>
      <point x="365" y="564" type="curve" smooth="yes"/>
      <point x="365" y="536" type="line" smooth="yes"/>
      <point x="365" y="535"/>
      <point x="365" y="535"/>
      <point x="364" y="535" type="curve" smooth="yes"/>
      <point x="336" y="535" type="line" smooth="yes"/>
      <point x="335" y="535"/>
      <point x="335" y="535"/>
      <point x="335" y="536" type="curve" smooth="yes"/>
      <point x="335" y="564" type="line" smooth="yes"/>
      <point x="335" y="565"/>
      <point x="335" y="565"/>
      <point x="336" y="565" type="curve" smooth="yes"/>
    </contour>
    <contour>
      <point x="136" y="465" type="line" smooth="yes"/>
      <point x="164" y="465" type="line" smooth="yes"/>
      <point x="165" y="465"/>
      <point x="165" y="465"/>
      <point x="165" y="464" type="curve" smooth="yes"/>
      <point x="165" y="436" type="line" smooth="yes"/>
      <point x="165" y="435"/>
      <point x="165" y="435"/>
      <point x="164" y="435" type="curve" smooth="yes"/>
      <point x="136" y="435" type="line" smooth="yes"/>
      <point x="135" y="435"/>
      <point x="135" y="435"/>
      <point x="135" y="436" type="curve" smooth="yes"/>
      <point x="135" y="464" type="line" smooth="yes"/>
      <point x="135" y="465"/>
      <point x="135" y="465"/>
      <point x="136" y="465" type="curve" smooth="yes"/>
    </contour>
    <contour>
      <point x="336" y="465" type="line" smooth="yes"/>
      <point x="364" y="465" type="line" smooth="yes"/>
      <point x="365" y="465"/>
      <point x="365" y="465"/>
      <point x="365" y="464" type="curve" smooth="yes"/>
      <point x="365" y="436" type="line" smooth="yes"/>
      <point x="365" y="435"/>
      <point x="365" y="435"/>
      <point x="364" y="435" type="curve" smooth="yes"/>
      <point x="336" y="435" type="line" smooth="yes"/>
      <point x="335" y="435"/>
      <point x="335" y="435"/>
      <point x="335" y="436" type="curve" smooth="yes"/>
      <point x="335" y="464" type="line" smooth="yes"/>
      <point x="335" y="465"/>
      <point x="335" y="465"/>
      <point x="336" y="465" type="curve" smooth="yes"/>
    </contour>
  </outline>
</glyph>
<glyph name="quotesingle" format="2">
  <advance width="600"/>
  <unicode hex="0027"/>
  <outline>
    <contour>
      <point x="236" y="665" type="line" smooth="yes"/>
      <point x="264" y="665" type="line" smooth="yes"/>
      <point x="265" y="665"/>
      <point x="265" y="665"/>
      <point x="265" y="664" type="curve" smooth="yes"/>
      <point x="265" y="636" type="line" smooth="yes"/>
      <point x="265" y="635"/>
      <point x="265" y="635"/>
      <point x="264" y="635" type="curve" smooth="yes"/>
      <point x="236" y="635" type="line" smooth="yes"/>
      <point x="235" y="635"/>
      <point x="235" y="635"/>
      <point x="235" y="636" type="curve" smooth="yes"/>
      <point x="235" y="664" type="line" smooth="yes"/>
      <point x="235" y="665"/>
      <point x="235" y="665"/>
      <point x="236" y="665" type="curve" smooth="yes"/>
    </contour>
    <contour>
      <point x="236" y="565" type="line" smooth="yes"/>
      <point x="264" y="565" type="line" smooth="yes"/>
      <point x="265" y="565"/>
      <point x="265" y="565"/>
      <point x="265" y="564" type="curve" smooth="yes"/>
      <point x="265" y="536" type="line" smooth="yes"/>
      <point x="265" y="535"/>
      <point x="265" y="535"/>
      <point x="264" y="535" type="curve" smooth="yes"/>
      <point x="236" y="535" type="line" smooth="yes"/>
      <point x="235" y="535"/>
      <point x="235" y="535"/>
      <point x="235" y="536" type="curve" smooth="yes"/>
      <point x="235" y="564" type="line" smooth="yes"/>
      <point x="235" y="565"/>
      <point x="235" y="565"/>
      <point x="236" y="565" type="curve" smooth="yes"/>
    </contour>
    <contour>
      <point x="236" y="465" type="line" smooth="yes"/>
      <point x="264" y="465" type="line" smooth="yes"/>
      <point x="265" y="465"/>
      <point x="265" y="465"/>
      <point x="265" y="464" type="curve" smooth="yes"/>
      <point x="265" y="436" type="line" smooth="yes"/>
      <point x="265" y="435"/>
      <point x="265" y="435"/>
      <point x="264" y="435" type="curve" smooth="yes"/>
      <point x="236" y="435" type="line" smooth="yes"/>
      <point x="235" y="435"/>
      <point x="235" y="435"/>
      <point x="235" y="436" type="curve" smooth="yes"/>
      <point x="235" y="464" type="line" smooth="yes"/>
      <point x="235" y="465"/>
      <point x="235" y="465"/>
      <point x="236" y="465" type="curve" smooth="yes"/>
    </contour>
  </outline>
</glyph>
<glyph name="equal" format="2">
  <advance width="600"/>
  <unicode hex="003D"/>
  <outline>
    <contour>
      <point x="36" y="465" type="line" smooth="yes"/>
      <point x="64" y="465" type="line" smooth="yes"/>
      <point x="65" y="465"/>
      <point x="65" y="465"/>
      <point x="65" y="464" type="curve" smooth="yes"/>
      <point x="65" y="436" type="line" smooth="yes"/>
      <point x="65" y="435"/>
      <point x="65" y="435"/>
      <point x="64" y="435" type="curve" smooth="yes"/>
      <point x="36" y="435" type="line" smooth="yes"/>
      <point x="35" y="435"/>
      <point x="35" y="435"/>
      <point x="35" y="436" type="curve" smooth="yes"/>
      <point x="35" y="464" type="line" smooth="yes"/>
      <point x="35" y="465"/>
      <point x="35" y="465"/>
      <point x="36" y="465" type="curve" smooth="yes"/>
    </contour>
    <contour>
      <point x="136" y="465" type="line" smooth="yes"/>
      <point x="164" y="465" type="line" smooth="yes"/>
      <point x="165" y="465"/>
      <point x="165" y="465"/>
      <point x="165" y="464" type="curve" smooth="yes"/>
      <point x="165" y="436" type="line" smooth="yes"/>
      <point x="165" y="435"/>
      <point x="165" y="435"/>
      <point x="164" y="435" type="curve" smooth="yes"/>
      <point x="136" y="435" type="line" smooth="yes"/>
      <point x="135" y="435"/>
      <point x="135" y="435"/>
      <point x="135" y="436" type="curve" smooth="yes"/>
      <point x="135" y="464" type="line" smooth="yes"/>
      <point x="135" y="465"/>
      <point x="135" y="465"/>
      <point x="136" y="465" type="curve" smooth="yes"/>
    </contour>
    <contour>
      <point x="236" y="465" type="line" smooth="yes"/>
      <point x="264" y="465" type="line" smooth="yes"/>
      <point x="265" y="465"/>
      <point x="265" y="465"/>
      <point x="265" y="464" type="curve" smooth="yes"/>
      <point x="265" y="436" type="line" smooth="yes"/>
      <point x="265" y="435"/>
      <point x="265" y="435"/>
      <point x="264" y="435" type="curve" smooth="yes"/>
      <point x="236" y="435" type="line" smooth="yes"/>
      <point x="235" y="435"/>
      <point x="235" y="435"/>
      <point x="235" y="436" type="curve" smooth="yes"/>
      <point x="235" y="464" type="line" smooth="yes"/>
      <point x="235" y="465"/>
      <point x="235" y="465"/>
      <point x="236" y="465" type="curve" smooth="yes"/>
    </contour>
    <contour>
      <point x="336" y="465" type="line" smooth="yes"/>
      <point x="364" y="465" type="line" smooth="yes"/>
      <point x="365" y="465"/>
      <point x="365" y="465"/>
      <point x="365" y="464" type="curve" smooth="yes"/>
      <point x="365" y="436" type="line" smooth="yes"/>
      <point x="365" y="435"/>
      <point x="365" y="435"/>
      <point x="364" y="435" type="curve" smooth="yes"/>
      <point x="336" y="435" type="line" smooth="yes"/>
      <point x="335" y="435"/>
      <point x="335" y="435"/>
      <point x="335" y="436" type="curve" smooth="yes"/>
      <point x="335" y="464" type="line" smooth="yes"/>
      <point x="335" y="465"/>
      <point x="335" y="465"/>
      <point x="336" y="465" type="curve" smooth="yes"/>
    </contour>
    <contour>
      <point x="436" y="465" type="line" smooth="yes"/>
      <point x="464" y="465" type="line" smooth="yes"/>
      <point x="465" y="465"/>
      <point x="465" y="465"/>
      <point x="465" y="464" type="curve" smooth="yes"/>
      <point x="465" y="436" type="line" smooth="yes"/>
      <point x="465" y="435"/>
      <point x="465" y="435"/>
      <point x="464" y="435" type="curve" smooth="yes"/>
      <point x="436" y="435" type="line" smooth="yes"/>
      <point x="435" y="435"/>
      <point x="435" y="435"/>
      <point x="435" y="436" type="curve" smooth="yes"/>
      <point x="435" y="464" type="line" smooth="yes"/>
      <point x="435" y="465"/>
      <point x="435" y="465"/>
      <point x="436" y="465" type="curve" smooth="yes"/>
    </contour>
    <contour>
      <point x="36" y="265" type="line" smooth="yes"/>
      <point x="64" y="265" type="line" smooth="yes"/>
      <point x="65" y="265"/>
      <point x="65" y="265"/>
      <point x="65" y="264" type="curve" smooth="yes"/>
      <point x="65" y="236" type="line" smooth="yes"/>
      <point x="65" y="235"/>
      <point x="65" y="235"/>
      <point x="64" y="235" type="curve" smooth="yes"/>
      <point x="36" y="235" type="line" smooth="yes"/>
      <point x="35" y="235"/>
      <point x="35" y="235"/>
      <point x="35" y="236" type="curve" smooth="yes"/>
      <point x="35" y="264" type="line" smooth="yes"/>
      <point x="35" y="265"/>
      <point x="35" y="265"/>
      <point x="36" y="265" type="curve" smooth="yes"/>
    </contour>
    <contour>
      <point x="136" y="265" type="line" smooth="yes"/>
      <point x="164" y="265" type="line" smooth="yes"/>
      <point x="165" y="265"/>
      <point x="165" y="265"/>
      <point x="165" y="264" type="curve" smooth="yes"/>
      <point x="165" y="236" type="line" smooth="yes"/>
      <point x="165" y="235"/>
      <point x="165" y="235"/>
      <point x="164" y="235" type="curve" smooth="yes"/>
      <point x="136" y="235" type="line" smooth="yes"/>
      <point x="135" y="235"/>
      <point x="135" y="235"/>
      <point x="135" y="236" type="curve" smooth="yes"/>
      <point x="135" y="264" type="line" smooth="yes"/>
      <point x="135" y="265"/>
      <point x="135" y="265"/>
      <point x="136" y="265" type="curve" smooth="yes"/>
    </contour>
    <contour>
      <point x="236" y="265" type="line" smooth="yes"/>
      <point x="264" y="265" type="line" smooth="yes"/>
      <point x="265" y="265"/>
      <point x="265" y="265"/>
      <point x="265" y="264" type="curve" smooth="yes"/>
      <point x="265" y="236" type="line" smooth="yes"/>
      <point x="265" y="235"/>
      <point x="265" y="235"/>
      <point x="264" y="235" type="curve" smooth="yes"/>
      <point x="236" y="235" type="line" smooth="yes"/>
      <point x="235" y="235"/>
      <point x="235" y="235"/>
      <point x="235" y="236" type="curve" smooth="yes"/>
      <point x="235" y="264" type="line" smooth="yes"/>
      <point x="235" y="265"/>
      <point x="235" y="265"/>
      <point x="236" y="265" type="curve" smooth="yes"/>
    </contour>
    <contour>
      <point x="336" y="265" type="line" smooth="yes"/>
      <point x="364" y="265" type="line" smooth="yes"/>
      <point x="365" y="265"/>
      <point x="365" y="265"/>
      <point x="365" y="264" type="curve" smooth="yes"/>
      <point x="365" y="236" type="line" smooth="yes"/>
      <point x="365" y="235"/>
      <point x="365" y="235"/>
      <point x="364" y="235" type="curve" smooth="yes"/>
      <point x="336" y="235" type="line" smooth="yes"/>
      <point x="335" y="235"/>
      <point x="335" y="235"/>
      <point x="335" y="236" type="curve" smooth="yes"/>
      <point x="335" y="264" type="line" smooth="yes"/>
      <point x="335" y="265"/>
      <point x="335" y="265"/>
      <point x="336" y="265" type="curve" smooth="yes"/>
    </contour>
    <contour>
      <point x="436" y="265" type="line" smooth="yes"/>
      <point x="464" y="265" type="line" smooth="yes"/>
      <point x="465" y="265"/>
      <point x="465" y="265"/>
      <point x="465" y="264" type="curve" smooth="yes"/>
      <point x="465" y="236" type="line" smooth="yes"/>
      <point x="465" y="235"/>
      <point x="465" y="235"/>
      <point x="464" y="235" type="curve" smooth="yes"/>
      <point x="436" y="235" type="line" smooth="yes"/>
      <point x="435" y="235"/>
      <point x="435" y="235"/>
      <point x="435" y="236" type="curve" smooth="yes"/>
      <point x="435" y="264" type="line" smooth="yes"/>
      <point x="435" y="265"/>
      <point x="435" y="265"/>
      <point x="436" y="265" type="curve" smooth="yes"/>
    </contour>
  </outline>
</glyph>
<glyph name="underscore" format="2">
  <advance width="600"/>
  <unicode hex="005F"/>
  <outline>
    <contour>
      <point x="36" y="-35" type="line" smooth="yes"/>
      <point x="64" y="-35" type="line" smooth="yes"/>
      <point x="65" y="-35"/>
      <point x="65" y="-35"/>
      <point x="65" y="-36" type="curve" smooth="yes"/>
      <point x="65" y="-64" type="line" smooth="yes"/>
      <point x="65" y="-65"/>
      <point x="65" y="-65"/>
      <point x="64" y="-65" type="curve" smooth="yes"/>
      <point x="36" y="-65" type="line" smooth="yes"/>
      <point x="35" y="-65"/>
      <point x="35" y="-65"/>
      <point x="35" y="-64" type="curve" smooth="yes"/>
      <point x="35" y="-36" type="line" smooth="yes"/>
      <point x="35" y="-35"/>
      <point x="35" y="-35"/>
      <point x="36" y="-35" type="curve" smooth="yes"/>
    </contour>
    <contour>
      <point x="136" y="-35" type="line" smooth="yes"/>
      <point x="164" y="-35" type="line" smooth="yes"/>
      <point x="165" y="-35"/>
      <point x="165" y="-35"/>
      <point x="165" y="-36" type="curve" smooth="yes"/>
      <point x="165" y="-64" type="line" smooth="yes"/>
      <point x="165" y="-65"/>
      <point x="165" y="-65"/>
      <point x="164" y="-65" type="curve" smooth="yes"/>
      <point x="136" y="-65" type="line" smooth="yes"/>
      <point x="135" y="-65"/>
      <point x="135" y="-65"/>
      <point x="135" y="-64" type="curve" smooth="yes"/>
      <point x="135" y="-36" type="line" smooth="yes"/>
      <point x="135" y="-35"/>
      <point x="135" y="-35"/>
      <point x="136" y="-35" type="curve" smooth="yes"/>
    </contour>
    <contour>
      <point x="236" y="-35" type="line" smooth="yes"/>
      <point x="264" y="-35" type="line" smooth="yes"/>
      <point x="265" y="-35"/>
      <point x="265" y="-35"/>
      <point x="265" y="-36" type="curve" smooth="yes"/>
      <point x="265" y="-64" type="line" smooth="yes"/>
      <point x="265" y="-65"/>
      <point x="265" y="-65"/>
      <point x="264" y="-65" type="curve" smooth="yes"/>
      <point x="236" y="-65" type="line" smooth="yes"/>
      <point x="235" y="-65"/>
      <point x="235" y="-65"/>
      <point x="235" y="-64" type="curve" smooth="yes"/>
      <point x="235" y="-36" type="line" smooth="yes"/>
      <point x="235" y="-35"/>
      <point x="235" y="-35"/>
      <point x="236" y="-35" type="curve" smooth="yes"/>
    </contour>
    <contour>
      <point x="336" y="-35" type="line" smooth="yes"/>
      <point x="364" y="-35" type="line" smooth="yes"/>
      <point x="365" y="-35"/>
      <point x="365" y="-35"/>
      <point x="365" y="-36" type="curve" smooth="yes"/>
      <point x="365" y="-64" type="line" smooth="yes"/>
      <point x="365" y="-65"/>
      <point x="365" y="-65"/>
      <point x="364" y="-65" type="curve" smooth="yes"/>
      <point x="336" y="-65" type="line" smooth="yes"/>
      <point x="335" y="-65"/>
      <point x="335" y="-65"/>
      <point x="335" y="-64" type="curve" smooth="yes"/>
      <point x="335" y="-36" type="line" smooth="yes"/>
      <point x="335" y="-35"/>
      <point x="335" y="-35"/>
      <point x="336" y="-35" type="curve" smooth="yes"/>
    </contour>
    <contour>
      <point x="436" y="-35" type="line" smooth="yes"/>
      <point x="464" y="-35" type="line" smooth="yes"/>
      <point x="465" y="-35"/>
      <point x="465" y="-35"/>
      <point x="465" y="-36" type="curve" smooth="yes"/>
      <point x="465" y="-64" type="line" smooth="yes"/>
      <point x="465" y="-65"/>
      <point x="465" y="-65"/>
      <point x="464" y="-65" type="curve" smooth="yes"/>
      <point x="436" y="-65" type="line" smooth="yes"/>
      <point x="435" y="-65"/>
      <point x="435" y="-65"/>
      <point x="435" y="-64" type="curve" smooth="yes"/>
      <point x="435" y="-36" type="line" smooth="yes"/>
      <point x="435" y="-35"/>
      <point x="435" y="-35"/>
      <point x="436" y="-35" type="curve" smooth="yes"/>
    </contour>
  </outline>
</glyph>
<glyph name="guillemotleft" format="2">
  <advance width="600"/>
  <unicode hex="00AB"/>
  <outline>
    <contour>
      <point x="236" y="465" type="line" smooth="yes"/>
      <point x="264" y="465" type="line" smooth="yes"/>
      <point x="265" y="465"/>
      <point x="265" y="465"/>
      <point x="265" y="464" type="curve" smooth="yes"/>
      <point x="265" y="436" type="line" smooth="yes"/>
      <point x="265" y="435"/>
      <point x="265" y="435"/>
      <point x="264" y="435" type="curve" smooth="yes"/>
      <point x="236" y="435" type="line" smooth="yes"/>
      <point x="235" y="435"/>
      <point x="235" y="435"/>
      <point x="235" y="436" type="curve" smooth="yes"/>
      <point x="235" y="464" type="line" smooth="yes"/>
      <point x="235" y="465"/>
      <point x="235" y="465"/>
      <point x="236" y="465" type="curve" smooth="yes"/>
    </contour>
    <contour>
      <point x="536" y="465" type="line" smooth="yes"/>
      <point x="564" y="465" type="line" smooth="yes"/>
      <point x="565" y="465"/>
      <point x="565" y="465"/>
      <point x="565" y="464" type="curve" smooth="yes"/>
      <point x="565" y="436" type="line" smooth="yes"/>
      <point x="565" y="435"/>
      <point x="565" y="435"/>
      <point x="564" y="435" type="curve" smooth="yes"/>
      <point x="536" y="435" type="line" smooth="yes"/>
      <point x="535" y="435"/>
      <point x="535" y="435"/>
      <point x="535" y="436" type="curve" smooth="yes"/>
      <point x="535" y="464" type="line" smooth="yes"/>
      <point x="535" y="465"/>
      <point x="535" y="465"/>
      <point x="536" y="465" type="curve" smooth="yes"/>
    </contour>
    <contour>
      <point x="136" y="365" type="line" smooth="yes"/>
      <point x="164" y="365" type="line" smooth="yes"/>
      <point x="165" y="365"/>
      <point x="165" y="365"/>
      <point x="165" y="364" type="curve" smooth="yes"/>
      <point x="165" y="336" type="line" smooth="yes"/>
      <point x="165" y="335"/>
      <point x="165" y="335"/>
      <point x="164" y="335" type="curve" smooth="yes"/>
      <point x="136" y="335" type="line" smooth="yes"/>
      <point x="135" y="335"/>
      <point x="135" y="335"/>
      <point x="135" y="336" type="curve" smooth="yes"/>
      <point x="135" y="364" type="line" smooth="yes"/>
      <point x="135" y="365"/>
      <point x="135" y="365"/>
      <point x="136" y="365" type="curve" smooth="yes"/>
    </contour>
    <contour>
      <point x="436" y="365" type="line" smooth="yes"/>
      <point x="464" y="365" type="line" smooth="yes"/>
      <point x="465" y="365"/>
      <point x="465" y="365"/>
      <point x="465" y="364" type="curve" smooth="yes"/>
      <point x="465" y="336" type="line" smooth="yes"/>
      <point x="465" y="335"/>
      <point x="465" y="335"/>
      <point x="464" y="335" type="curve" smooth="yes"/>
      <point x="436" y="335" type="line" smooth="yes"/>
      <point x="435" y="335"/>
      <point x="435" y="335"/>
      <point x="435" y="336" type="curve" smooth="yes"/>
      <point x="435" y="364" type="line" smooth="yes"/>
      <point x="435" y="365"/>
      <point x="435" y="365"/>
      <point x="436" y="365" type="curve" smooth="yes"/>
    </contour>
    <contour>
      <point x="36" y="265" type="line" smooth="yes"/>
      <point x="64" y="265" type="line" smooth="yes"/>
      <point x="65" y="265"/>
      <point x="65" y="265"/>
      <point x="65" y="264" type="curve" smooth="yes"/>
      <point x="65" y="236" type="line" smooth="yes"/>
      <point x="65" y="235"/>
      <point x="65" y="235"/>
      <point x="64" y="235" type="curve" smooth="yes"/>
      <point x="36" y="235" type="line" smooth="yes"/>
      <point x="35" y="235"/>
      <point x="35" y="235"/>
      <point x="35" y="236" type="curve" smooth="yes"/>
      <point x="35" y="264" type="line" smooth="yes"/>
      <point x="35" y="265"/>
      <point x="35" y="265"/>
      <point x="36" y="265" type="curve" smooth="yes"/>
    </contour>
    <contour>
      <point x="336" y="265" type="line" smooth="yes"/>
      <point x="364" y="265" type="line" smooth="yes"/>
      <point x="365" y="265"/>
      <point x="365" y="265"/>
      <point x="365" y="264" type="curve" smooth="yes"/>
      <point x="365" y="236" type="line" smooth="yes"/>
      <point x="365" y="235"/>
      <point x="365" y="235"/>
      <point x="364" y="235" type="curve" smooth="yes"/>
      <point x="336" y="235" type="line" smooth="yes"/>
      <point x="335" y="235"/>
      <point x="335" y="235"/>
      <point x="335" y="236" type="curve" smooth="yes"/>
      <point x="335" y="264" type="line" smooth="yes"/>
      <point x="335" y="265"/>
      <point x="335" y="265"/>
      <point x="336" y="265" type="curve" smooth="yes"/>
    </contour>
    <contour>
      <point x="136" y="165" type="line" smooth="yes"/>
      <point x="164" y="165" type="line" smooth="yes"/>
      <point x="165" y="165"/>
      <point x="165" y="165"/>
      <point x="165" y="164" type="curve" smooth="yes"/>
      <point x="165" y="136" type="line" smooth="yes"/>
      <point x="165" y="135"/>
      <point x="165" y="135"/>
      <point x="164" y="135" type="curve" smooth="yes"/>
      <point x="136" y="135" type="line" smooth="yes"/>
      <point x="135" y="135"/>
      <point x="135" y="135"/>
      <point x="135" y="136" type="curve" smooth="yes"/>
      <point x="135" y="164" type="line" smooth="yes"/>
      <point x="135" y="165"/>
      <point x="135" y="165"/>
      <point x="136" y="165" type="curve" smooth="yes"/>
    </contour>
    <contour>
      <point x="436" y="165" type="line" smooth="yes"/>
      <point x="464" y="165" type="line" smooth="yes"/>
      <point x="465" y="165"/>
      <point x="465" y="165"/>
      <point x="465" y="164" type="curve" smooth="yes"/>
      <point x="465" y="136" type="line" smooth="yes"/>
      <point x="465" y="135"/>
      <point x="465" y="135"/>
      <point x="464" y="135" type="curve" smooth="yes"/>
      <point x="436" y="135" type="line" smooth="yes"/>
      <point x="435" y="135"/>
      <point x="435" y="135"/>
      <point x="435" y="136" type="curve" smooth="yes"/>
      <point x="435" y="164" type="line" smooth="yes"/>
      <point x="435" y="165"/>
      <point x="435" y="165"/>
      <point x="436" y="165" type="curve" smooth="yes"/>
    </contour>
    <contour>
      <point x="236" y="65" type="line" smooth="yes"/>
      <point x="264" y="65" type="line" smooth="yes"/>
      <point x="265" y="65"/>
      <point x="265" y="65"/>
      <point x="265" y="64" type="curve" smooth="yes"/>
      <point x="265" y="36" type="line" smooth="yes"/>
      <point x="265" y="35"/>
      <point x="265" y="35"/>
      <point x="264" y="35" type="curve" smooth="yes"/>
      <point x="236" y="35" type="line" smooth="yes"/>
      <point x="235" y="35"/>
      <point x="235" y="35"/>
      <point x="235" y="36" type="curve" smooth="yes"/>
      <point x="235" y="64" type="line" smooth="yes"/>
      <point x="235" y="65"/>
      <point x="235" y="65"/>
      <point x="236" y="65" type="curve" smooth="yes"/>
    </contour>
    <contour>
      <point x="536" y="65" type="line" smooth="yes"/>
      <point x="564" y="65" type="line" smooth="yes"/>
      <point x="565" y="65"/>
      <point x="565" y="65"/>
      <point x="565" y="64" type="curve" smooth="yes"/>
      <point x="565" y="36" type="line" smooth="yes"/>
      <point x="565" y="35"/>
      <point x="565" y="35"/>
      <point x="564" y="35" type="curve" smooth="yes"/>
      <point x="536" y="35" type="line" smooth="yes"/>
      <point x="535" y="35"/>
      <point x="535" y="35"/>
      <point x="535" y="36" type="curve" smooth="yes"/>
      <point x="535" y="64" type="line" smooth="yes"/>
      <point x="535" y="65"/>
      <point x="535" y="65"/>
      <point x="536" y="65" type="curve" smooth="yes"/>
    </contour>
  </outline>
</glyph>
<glyph name="macron" format="2">
  <advance width="600"/>
  <unicode hex="00AF"/>
  <outline>
    <contour>
      <point x="36" y="765" type="line" smooth="yes"/>
      <point x="64" y="765" type="line" smooth="yes"/>
      <point x="65" y="765"/>
      <point x="65" y="765"/>
      <point x="65" y="764" type="curve" smooth="yes"/>
      <point x="65" y="736" type="line" smooth="yes"/>
      <point x="65" y="735"/>
      <point x="65" y="735"/>
      <point x="64" y="735" type="curve" smooth="yes"/>
      <point x="36" y="735" type="line" smooth="yes"/>
      <point x="35" y="735"/>
      <point x="35" y="735"/>
      <point x="35" y="736" type="curve" smooth="yes"/>
      <point x="35" y="764" type="line" smooth="yes"/>
      <point x="35" y="765"/>
      <point x="35" y="765"/>
      <point x="36" y="765" type="curve" smooth="yes"/>
    </contour>
    <contour>
      <point x="136" y="765" type="line" smooth="yes"/>
      <point x="164" y="765" type="line" smooth="yes"/>
      <point x="165" y="765"/>
      <point x="165" y="765"/>
      <point x="165" y="764" type="curve" smooth="yes"/>
      <point x="165" y="736" type="line" smooth="yes"/>
      <point x="165" y="735"/>
      <point x="165" y="735"/>
      <point x="164" y="735" type="curve" smooth="yes"/>
      <point x="136" y="735" type="line" smooth="yes"/>
      <point x="135" y="735"/>
      <point x="135" y="735"/>
      <point x="135" y="736" type="curve" smooth="yes"/>
      <point x="135" y="764" type="line" smooth="yes"/>
      <point x="135" y="765"/>
      <point x="135" y="765"/>
      <point x="136" y="765" type="curve" smooth="yes"/>
    </contour>
    <contour>
      <point x="236" y="765" type="line" smooth="yes"/>
      <point x="264" y="765" type="line" smooth="yes"/>
      <point x="265" y="765"/>
      <point x="265" y="765"/>
      <point x="265" y="764" type="curve" smooth="yes"/>
      <point x="265" y="736" type="line" smooth="yes"/>
      <point x="265" y="735"/>
      <point x="265" y="735"/>
      <point x="264" y="735" type="curve" smooth="yes"/>
      <point x="236" y="735" type="line" smooth="yes"/>
      <point x="235" y="735"/>
      <point x="235" y="735"/>
      <point x="235" y="736" type="curve" smooth="yes"/>
      <point x="235" y="764" type="line" smooth="yes"/>
      <point x="235" y="765"/>
      <point x="235" y="765"/>
      <point x="236" y="765" type="curve" smooth="yes"/>
    </contour>
    <contour>
      <point x="336" y="765" type="line" smooth="yes"/>
      <point x="364" y="765" type="line" smooth="yes"/>
      <point x="365" y="765"/>
      <point x="365" y="765"/>
      <point x="365" y="764" type="curve" smooth="yes"/>
      <point x="365" y="736" type="line" smooth="yes"/>
      <point x="365" y="735"/>
      <point x="365" y="735"/>
      <point x="364" y="735" type="curve" smooth="yes"/>
      <point x="336" y="735" type="line" smooth="yes"/>
      <point x="335" y="735"/>
      <point x="335" y="735"/>
      <point x="335" y="736" type="curve" smooth="yes"/>
      <point x="335" y="764" type="line" smooth="yes"/>
      <point x="335" y="765"/>
      <point x="335" y="765"/>
      <point x="336" y="765" type="curve" smooth="yes"/>
    </contour>
    <contour>
      <point x="436" y="765" type="line" smooth="yes"/>
      <point x="464" y="765" type="line" smooth="yes"/>
      <point x="465" y="765"/>
      <point x="465" y="765"/>
      <point x="465" y="764" type="curve" smooth="yes"/>
      <point x="465" y="736" type="line" smooth="yes"/>
      <point x="465" y="735"/>
      <point x="465" y="735"/>
      <point x="464" y="735" type="curve" smooth="yes"/>
      <point x="436" y="735" type="line" smooth="yes"/>
      <point x="435" y="735"/>
      <point x="435" y="735"/>
      <point x="435" y="736" type="curve" smooth="yes"/>
      <point x="435" y="764" type="line" smooth="yes"/>
      <point x="435" y="765"/>
      <point x="435" y="765"/>
      <point x="436" y="765" type="curve" smooth="yes"/>
    </contour>
  </outline>
</glyph>
<glyph name="periodcentered" format="2">
  <advance width="600"/>
  <unicode hex="00B7"/>
  <outline>
    <contour>
      <point x="236" y="365" type="line" smooth="yes"/>
      <point x="264" y="365" type="line" smooth="yes"/>
      <point x="265" y="365"/>
      <point x="265" y="365"/>
      <point x="265" y="364" type="curve" smooth="yes"/>
      <point x="265" y="336" type="line" smooth="yes"/>
      <point x="265" y="335"/>
      <point x="265" y="335"/>
      <point x="264" y="335" type="curve" smooth="yes"/>
      <point x="236" y="335" type="line" smooth="yes"/>
      <point x="235" y="335"/>
      <point x="235" y="335"/>
      <point x="235" y="336" type="curve" smooth="yes"/>
      <point x="235" y="364" type="line" smooth="yes"/>
      <point x="235" y="365"/>
      <point x="235" y="365"/>
      <point x="236" y="365" type="curve" smooth="yes"/>
    </contour>
  </outline>
</glyph>
<glyph name="Edieresis" format="2">
  <advance width="600"/>
  <unicode hex="00CB"/>
  <outline>
    <contour>
      <point x="136" y="765" type="line" smooth="yes"/>
      <point x="164" y="765" type="line" smooth="yes"/>
      <point x="165" y="765"/>
      <point x="165" y="765"/>
      <point x="165" y="764" type="curve" smooth="yes"/>
      <point x="165" y="736" type="line" smooth="yes"/>
      <point x="165" y="735"/>
      <point x="165" y="735"/>
      <point x="164" y="735" type="curve" smooth="yes"/>
      <point x="136" y="735" type="line" smooth="yes"/>
      <point x="135" y="735"/>
      <point x="135" y="735"/>
      <point x="135" y="736" type="curve" smooth="yes"/>
      <point x="135" y="764" type="line" smooth="yes"/>
      <point x="135" y="765"/>
      <point x="135" y="765"/>
      <point x="136" y="765" type="curve" smooth="yes"/>
    </contour>
    <contour>
      <point x="336" y="765" type="line" smooth="yes"/>
      <point x="364" y="765" type="line" smooth="yes"/>
      <point x="365" y="765"/>
      <point x="365" y="765"/>
      <point x="365" y="764" type="curve" smooth="yes"/>
      <point x="365" y="736" type="line" smooth="yes"/>
      <point x="365" y="735"/>
      <point x="365" y="735"/>
      <point x="364" y="735" type="curve" smooth="yes"/>
      <point x="336" y="735" type="line" smooth="yes"/>
      <point x="335" y="735"/>
      <point x="335" y="735"/>
      <point x="335" y="736" type="curve" smooth="yes"/>
      <point x="335" y="764" type="line" smooth="yes"/>
      <point x="335" y="765"/>
      <point x="335" y="765"/>
      <point x="336" y="765" type="curve" smooth="yes"/>
    </contour>
    <contour>
      <point x="36" y="665" type="line" smooth="yes"/>
      <point x="64" y="665" type="line" smooth="yes"/>
      <point x="65" y="665"/>
      <point x="65" y="665"/>
      <point x="65" y="664" type="curve" smooth="yes"/>
      <point x="65" y="636" type="line" smooth="yes"/>
      <point x="65" y="635"/>
      <point x="65" y="635"/>
      <point x="64" y="635" type="curve" smooth="yes"/>
      <point x="36" y="635" type="line" smooth="yes"/>
      <point x="35" y="635"/>
      <point x="35" y="635"/>
      <point x="35" y="636" type="curve" smooth="yes"/>
      <point x="35" y="664" type="line" smooth="yes"/>
      <point x="35" y="665"/>
      <point x="35" y="665"/>
      <point x="36" y="665" type="curve" smooth="yes"/>
    </contour>
    <contour>
      <point x="136" y="665" type="line" smooth="yes"/>
      <point x="164" y="665" type="line" smooth="yes"/>
      <point x="165" y="665"/>
      <point x="165" y="665"/>
      <point x="165" y="664" type="curve" smooth="yes"/>
      <point x="165" y="636" type="line" smooth="yes"/>
      <point x="165" y="635"/>
      <point x="165" y="635"/>
      <point x="164" y="635" type="curve" smooth="yes"/>
      <point x="136" y="635" type="line" smooth="yes"/>
      <point x="135" y="635"/>
      <point x="135" y="635"/>
      <point x="135" y="636" type="curve" smooth="yes"/>
      <point x="135" y="664" type="line" smooth="yes"/>
      <point x="135" y="665"/>
      <point x="135" y="665"/>
      <point x="136" y="665" type="curve" smooth="yes"/>
    </contour>
    <contour>
      <point x="236" y="665" type="line" smooth="yes"/>
      <point x="264" y="665" type="line" smooth="yes"/>
      <point x="265" y="665"/>
      <point x="265" y="665"/>
      <point x="265" y="664" type="curve" smooth="yes"/>
      <point x="265" y="636" type="line" smooth="yes"/>
      <point x="265" y="635"/>
      <point x="265" y="635"/>
      <point x="264" y="635" type="curve" smooth="yes"/>
      <point x="236" y="635" type="line" smooth="yes"/>
      <point x="235" y="635"/>
      <point x="235" y="635"/>
      <point x="235" y="636" type="curve" smooth="yes"/>
      <point x="235" y="664" type="line" smooth="yes"/>
      <point x="235" y="665"/>
      <point x="235" y="665"/>
      <point x="236" y="665" type="curve" smooth="yes"/>
    </contour>
    <contour>
      <point x="336" y="665" type="line" smooth="yes"/>
      <point x="364" y="665" type="line" smooth="yes"/>
      <point x="365" y="665"/>
      <point x="365" y="665"/>
      <point x="365" y="664" type="curve" smooth="yes"/>
      <point x="365" y="636" type="line" smooth="yes"/>
      <point x="365" y="635"/>
      <point x="365" y="635"/>
      <point x="364" y="635" type="curve" smooth="yes"/>
      <point x="336" y="635" type="line" smooth="yes"/>
      <point x="335" y="635"/>
      <point x="335" y="635"/>
      <point x="335" y="636" type="curve" smooth="yes"/>
      <point x="335" y="664" type="line" smooth="yes"/>
      <point x="335" y="665"/>
      <point x="335" y="665"/>
      <point x="336" y="665" type="curve" smooth="yes"/>
    </contour>
    <contour>
      <point x="436" y="665" type="line" smooth="yes"/>
      <point x="464" y="665" type="line" smooth="yes"/>
      <point x="465" y="665"/>
      <point x="465" y="665"/>
      <point x="465" y="664" type="curve" smooth="yes"/>
      <point x="465" y="636" type="line" smooth="yes"/>
      <point x="465" y="635"/>
      <point x="465" y="635"/>
      <point x="464" y="635" type="curve" smooth="yes"/>
      <point x="436" y="635" type="line" smooth="yes"/>
      <point x="435" y="635"/>
      <point x="435" y="635"/>
      <point x="435" y="636" type="curve" smooth="yes"/>
      <point x="435" y="664" type="line" smooth="yes"/>
      <point x="435" y="665"/>
      <point x="435" y="665"/>
      <point x="436" y="665" type="curve" smooth="yes"/>
    </contour>
    <contour>
      <point x="36" y="565" type="line" smooth="yes"/>
      <point x="64" y="565" type="line" smooth="yes"/>
      <point x="65" y="565"/>
      <point x="65" y="565"/>
      <point x="65" y="564" type="curve" smooth="yes"/>
      <point x="65" y="536" type="line" smooth="yes"/>
      <point x="65" y="535"/>
      <point x="65" y="535"/>
      <point x="64" y="535" type="curve" smooth="yes"/>
      <point x="36" y="535" type="line" smooth="yes"/>
      <point x="35" y="535"/>
      <point x="35" y="535"/>
      <point x="35" y="536" type="curve" smooth="yes"/>
      <point x="35" y="564" type="line" smooth="yes"/>
      <point x="35" y="565"/>
      <point x="35" y="565"/>
      <point x="36" y="565" type="curve" smooth="yes"/>
    </contour>
    <contour>
      <point x="36" y="465" type="line" smooth="yes"/>
      <point x="64" y="465" type="line" smooth="yes"/>
      <point x="65" y="465"/>
      <point x="65" y="465"/>
      <point x="65" y="464" type="curve" smooth="yes"/>
      <point x="65" y="436" type="line" smooth="yes"/>
      <point x="65" y="435"/>
      <point x="65" y="435"/>
      <point x="64" y="435" type="curve" smooth="yes"/>
      <point x="36" y="435" type="line" smooth="yes"/>
      <point x="35" y="435"/>
      <point x="35" y="435"/>
      <point x="35" y="436" type="curve" smooth="yes"/>
      <point x="35" y="464" type="line" smooth="yes"/>
      <point x="35" y="465"/>
      <point x="35" y="465"/>
      <point x="36" y="465" type="curve" smooth="yes"/>
    </contour>
    <contour>
      <point x="36" y="365" type="line" smooth="yes"/>
      <point x="64" y="365" type="line" smooth="yes"/>
      <point x="65" y="365"/>
      <point x="65" y="365"/>
      <point x="65" y="364" type="curve" smooth="yes"/>
      <point x="65" y="336" type="line" smooth="yes"/>
      <point x="65" y="335"/>
      <point x="65" y="335"/>
      <point x="64" y="335" type="curve" smooth="yes"/>
      <point x="36" y="335" type="line" smooth="yes"/>
      <point x="35" y="335"/>
      <point x="35" y="335"/>
      <point x="35" y="336" type="curve" smooth="yes"/>
      <point x="35" y="364" type="line" smooth="yes"/>
      <point x="35" y="365"/>
      <point x="35" y="365"/>
      <point x="36" y="365" type="curve" smooth="yes"/>
    </contour>
    <contour>
      <point x="136" y="365" type="line" smooth="yes"/>
      <point x="164" y="365" type="line" smooth="yes"/>
      <point x="165" y="365"/>
      <point x="165" y="365"/>
      <point x="165" y="364" type="curve" smooth="yes"/>
      <point x="165" y="336" type="line" smooth="yes"/>
      <point x="165" y="335"/>
      <point x="165" y="335"/>
      <point x="164" y="335" type="curve" smooth="yes"/>
      <point x="136" y="335" type="line" smooth="yes"/>
      <point x="135" y="335"/>
      <point x="135" y="335"/>
      <point x="135" y="336" type="curve" smooth="yes"/>
      <point x="135" y="364" type="line" smooth="yes"/>
      <point x="135" y="365"/>
      <point x="135" y="365"/>
      <point x="136" y="365" type="curve" smooth="yes"/>
    </contour>
    <contour>
      <point x="236" y="365" type="line" smooth="yes"/>
      <point x="264" y="365" type="line" smooth="yes"/>
      <point x="265" y="365"/>
      <point x="265" y="365"/>
      <point x="265" y="364" type="curve" smooth="yes"/>
      <point x="265" y="336" type="line" smooth="yes"/>
      <point x="265" y="335"/>
      <point x="265" y="335"/>
      <point x="264" y="335" type="curve" smooth="yes"/>
      <point x="236" y="335" type="line" smooth="yes"/>
      <point x="235" y="335"/>
      <point x="235" y="335"/>
      <point x="235" y="336" type="curve" smooth="yes"/>
      <point x="235" y="364" type="line" smooth="yes"/>
      <point x="235" y="365"/>
      <point x="235" y="365"/>
      <point x="236" y="365" type="curve" smooth="yes"/>
    </contour>
    <contour>
      <point x="336" y="365" type="line" smooth="yes"/>
      <point x="364" y="365" type="line" smooth="yes"/>
      <point x="365" y="365"/>
      <point x="365" y="365"/>
      <point x="365" y="364" type="curve" smooth="yes"/>
      <point x="365" y="336" type="line" smooth="yes"/>
      <point x="365" y="335"/>
      <point x="365" y="335"/>
      <point x="364" y="335" type="curve" smooth="yes"/>
      <point x="336" y="335" type="line" smooth="yes"/>
      <point x="335" y="335"/>
      <point x="335" y="335"/>
      <point x="335" y="336" type="curve" smooth="yes"/>
      <point x="335" y="364" type="line" smooth="yes"/>
      <point x="335" y="365"/>
      <point x="335" y="365"/>
      <point x="336" y="365" type="curve" smooth="yes"/>
    </contour>
    <contour>
      <point x="36" y="265" type="line" smooth="yes"/>
      <point x="64" y="265" type="line" smooth="yes"/>
      <point x="65" y="265"/>
      <point x="65" y="265"/>
      <point x="65" y="264" type="curve" smooth="yes"/>
      <point x="65" y="236" type="line" smooth="yes"/>
      <point x="65" y="235"/>
      <point x="65" y="235"/>
      <point x="64" y="235" type="curve" smooth="yes"/>
      <point x="36" y="235" type="line" smooth="yes"/>
      <point x="35" y="235"/>
      <point x="35" y="235"/>
      <point x="35" y="236" type="curve" smooth="yes"/>
      <point x="35" y="264" type="line" smooth="yes"/>
      <point x="35" y="265"/>
      <point x="35" y="265"/>
      <point x="36" y="265" type="curve" smooth="yes"/>
    </contour>
    <contour>
      <point x="36" y="165" type="line" smooth="yes"/>
      <point x="64" y="165" type="line" smooth="yes"/>
      <point x="65" y="165"/>
      <point x="65" y="165"/>
      <point x="65" y="164" type="curve" smooth="yes"/>
      <point x="65" y="136" type="line" smooth="yes"/>
      <point x="65" y="135"/>
      <point x="65" y="135"/>
      <point x="64" y="135" type="curve" smooth="yes"/>
      <point x="36" y="135" type="line" smooth="yes"/>
      <point x="35" y="135"/>
      <point x="35" y="135"/>
      <point x="35" y="136" type="curve" smooth="yes"/>
      <point x="35" y="164" type="line" smooth="yes"/>
      <point x="35" y="165"/>
      <point x="35" y="165"/>
      <point x="36" y="165" type="curve" smooth="yes"/>
    </contour>
    <contour>
      <point x="36" y="65" type="line" smooth="yes"/>
      <point x="64" y="65" type="line" smooth="yes"/>
      <point x="65" y="65"/>
      <point x="65" y="65"/>
      <point x="65" y="64" type="curve" smooth="yes"/>
      <point x="65" y="36" type="line" smooth="yes"/>
      <point x="65" y="35"/>
      <point x="65" y="35"/>
      <point x="64" y="35" type="curve" smooth="yes"/>
      <point x="36" y="35" type="line" smooth="yes"/>
      <point x="35" y="35"/>
      <point x="35" y="35"/>
      <point x="35" y="36" type="curve" smooth="yes"/>
      <point x="35" y="64" type="line" smooth="yes"/>
      <point x="35" y="65"/>
      <point x="35" y="65"/>
      <point x="36" y="65" type="curve" smooth="yes"/>
    </contour>
    <contour>
      <point x="136" y="65" type="line" smooth="yes"/>
      <point x="164" y="65" type="line" smooth="yes"/>
      <point x="165" y="65"/>
      <point x="165" y="65"/>
      <point x="165" y="64" type="curve" smooth="yes"/>
      <point x="165" y="36" type="line" smooth="yes"/>
      <point x="165" y="35"/>
      <point x="165" y="35"/>
      <point x="164" y="35" type="curve" smooth="yes"/>
      <point x="136" y="35" type="line" smooth="yes"/>
      <point x="135" y="35"/>
      <point x="135" y="35"/>
      <point x="135" y="36" type="curve" smooth="yes"/>
      <point x="135" y="64" type="line" smooth="yes"/>
      <point x="135" y="65"/>
      <point x="135" y="65"/>
      <point x="136" y="65" type="curve" smooth="yes"/>
    </contour>
    <contour>
      <point x="236" y="65" type="line" smooth="yes"/>
      <point x="264" y="65" type="line" smooth="yes"/>
      <point x="265" y="65"/>
      <point x="265" y="65"/>
      <point x="265" y="64" type="curve" smooth="yes"/>
      <point x="265" y="36" type="line" smooth="yes"/>
      <point x="265" y="35"/>
      <point x="265" y="35"/>
      <point x="264" y="35" type="curve" smooth="yes"/>
      <point x="236" y="35" type="line" smooth="yes"/>
      <point x="235" y="35"/>
      <point x="235" y="35"/>
      <point x="235" y="36" type="curve" smooth="yes"/>
      <point x="235" y="64" type="line" smooth="yes"/>
      <point x="235" y="65"/>
      <point x="235" y="65"/>
      <point x="236" y="65" type="curve" smooth="yes"/>
    </contour>
    <contour>
      <point x="336" y="65" type="line" smooth="yes"/>
      <point x="364" y="65" type="line" smooth="yes"/>
      <point x="365" y="65"/>
      <point x="365" y="65"/>
      <point x="365" y="64" type="curve" smooth="yes"/>
      <point x="365" y="36" type="line" smooth="yes"/>
      <point x="365" y="35"/>
      <point x="365" y="35"/>
      <point x="364" y="35" type="curve" smooth="yes"/>
      <point x="336" y="35" type="line" smooth="yes"/>
      <point x="335" y="35"/>
      <point x="335" y="35"/>
      <point x="335" y="36" type="curve" smooth="yes"/>
      <point x="335" y="64" type="line" smooth="yes"/>
      <point x="335" y="65"/>
      <point x="335" y="65"/>
      <point x="336" y="65" type="curve" smooth="yes"/>
    </contour>
    <contour>
      <point x="436" y="65" type="line" smooth="yes"/>
      <point x="464" y="65" type="line" smooth="yes"/>
      <point x="465" y="65"/>
      <point x="465" y="65"/>
      <point x="465" y="64" type="curve" smooth="yes"/>
      <point x="465" y="36" type="line" smooth="yes"/>
      <point x="465" y="35"/>
      <point x="465" y="35"/>
      <point x="464" y="35" type="curve" smooth="yes"/>
      <point x="436" y="35" type="line" smooth="yes"/>
      <point x="435" y="35"/>
      <point x="435" y="35"/>
      <point x="435" y="36" type="curve" smooth="yes"/>
      <point x="435" y="64" type="line" smooth="yes"/>
      <point x="435" y="65"/>
      <point x="435" y="65"/>
      <point x="436" y="65" type="curve" smooth="yes"/>
    </contour>
  </outline>
</glyph>
<glyph name="Thorn" format="2">
  <advance width="600"/>
  <unicode hex="00DE"/>
  <outline>
    <contour>
      <point x="36" y="665" type="line" smooth="yes"/>
      <point x="64" y="665" type="line" smooth="yes"/>
      <point x="65" y="665"/>
      <point x="65" y="665"/>
      <point x="65" y="664" type="curve" smooth="yes"/>
      <point x="65" y="636" type="line" smooth="yes"/>
      <point x="65" y="635"/>
      <point x="65" y="635"/>
      <point x="64" y="635" type="curve" smooth="yes"/>
      <point x="36" y="635" type="line" smooth="yes"/>
      <point x="35" y="635"/>
      <point x="35" y="635"/>
      <point x="35" y="636" type="curve" smooth="yes"/>
      <point x="35" y="664" type="line" smooth="yes"/>
      <point x="35" y="665"/>
      <point x="35" y="665"/>
      <point x="36" y="665" type="curve" smooth="yes"/>
    </contour>
    <contour>
      <point x="36" y="565" type="line" smooth="yes"/>
      <point x="64" y="565" type="line" smooth="yes"/>
      <point x="65" y="565"/>
      <point x="65" y="565"/>
      <point x="65" y="564" type="curve" smooth="yes"/>
      <point x="65" y="536" type="line" smooth="yes"/>
      <point x="65" y="535"/>
      <point x="65" y="535"/>
      <point x="64" y="535" type="curve" smooth="yes"/>
      <point x="36" y="535" type="line" smooth="yes"/>
      <point x="35" y="535"/>
      <point x="35" y="535"/>
      <point x="35" y="536" type="curve" smooth="yes"/>
      <point x="35" y="564" type="line" smooth="yes"/>
      <point x="35" y="565"/>
      <point x="35" y="565"/>
      <point x="36" y="565" type="curve" smooth="yes"/>
    </contour>
    <contour>
      <point x="136" y="565" type="line" smooth="yes"/>
      <point x="164" y="565" type="line" smooth="yes"/>
      <point x="165" y="565"/>
      <point x="165" y="565"/>
      <point x="165" y="564" type="curve" smooth="yes"/>
      <point x="165" y="536" type="line" smooth="yes"/>
      <point x="165" y="535"/>
      <point x="165" y="535"/>
      <point x="164" y="535" type="curve" smooth="yes"/>
      <point x="136" y="535" type="line" smooth="yes"/>
      <point x="135" y="535"/>
      <point x="135" y="535"/>
      <point x="135" y="536" type="curve" smooth="yes"/>
      <point x="135" y="564" type="line" smooth="yes"/>
      <point x="135" y="565"/>
      <point x="135" y="565"/>
      <point x="136" y="565" type="curve" smooth="yes"/>
    </contour>
    <contour>
      <point x="236" y="565" type="line" smooth="yes"/>
      <point x="264" y="565" type="line" smooth="yes"/>
      <point x="265" y="565"/>
      <point x="265" y="565"/>
      <point x="265" y="564" type="curve" smooth="yes"/>
      <point x="265" y="536" type="line" smooth="yes"/>
      <point x="265" y="535"/>
      <point x="265" y="535"/>
      <point x="264" y="535" type="curve" smooth="yes"/>
      <point x="236" y="535" type="line" smooth="yes"/>
      <point x="235" y="535"/>
      <point x="235" y="535"/>
      <point x="235" y="536" type="curve" smooth="yes"/>
      <point x="235" y="564" type="line" smooth="yes"/>
      <point x="235" y="565"/>
      <point x="235" y="565"/>
      <point x="236" y="565" type="curve" smooth="yes"/>
    </contour>
    <contour>
      <point x="336" y="565" type="line" smooth="yes"/>
      <point x="364" y="565" type="line" smooth="yes"/>
      <point x="365" y="565"/>
      <point x="365" y="565"/>
      <point x="365" y="564" type="curve" smooth="yes"/>
      <point x="365" y="536" type="line" smooth="yes"/>
      <point x="365" y="535"/>
      <point x="365" y="535"/>
      <point x="364" y="535" type="curve" smooth="yes"/>
      <point x="336" y="535" type="line" smooth="yes"/>
      <point x="335" y="535"/>
      <point x="335" y="535"/>
      <point x="335" y="536" type="curve" smooth="yes"/>
      <point x="335" y="564" type="line" smooth="yes"/>
      <point x="335" y="565"/>
      <point x="335" y="565"/>
      <point x="336" y="565" type="curve" smooth="yes"/>
    </contour>
    <contour>
      <point x="36" y="465" type="line" smooth="yes"/>
      <point x="64" y="465" type="line" smooth="yes"/>
      <point x="65" y="465"/>
      <point x="65" y="465"/>
      <point x="65" y="464" type="curve" smooth="yes"/>
      <point x="65" y="436" type="line" smooth="yes"/>
      <point x="65" y="435"/>
      <point x="65" y="435"/>
      <point x="64" y="435" type="curve" smooth="yes"/>
      <point x="36" y="435" type="line" smooth="yes"/>
      <point x="35" y="435"/>
      <point x="35" y="435"/>
      <point x="35" y="436" type="curve" smooth="yes"/>
      <point x="35" y="464" type="line" smooth="yes"/>
      <point x="35" y="465"/>
      <point x="35" y="465"/>
      <point x="36" y="465" type="curve" smooth="yes"/>
    </contour>
    <contour>
      <point x="436" y="465" type="line" smooth="yes"/>
      <point x="464" y="465" type="line" smooth="yes"/>
      <point x="465" y="465"/>
      <point x="465" y="465"/>
      <point x="465" y="464" type="curve" smooth="yes"/>
      <point x="465" y="436" type="line" smooth="yes"/>
      <point x="465" y="435"/>
      <point x="465" y="435"/>
      <point x="464" y="435" type="curve" smooth="yes"/>
      <point x="436" y="435" type="line" smooth="yes"/>
      <point x="435" y="435"/>
      <point x="435" y="435"/>
      <point x="435" y="436" type="curve" smooth="yes"/>
      <point x="435" y="464" type="line" smooth="yes"/>
      <point x="435" y="465"/>
      <point x="435" y="465"/>
      <point x="436" y="465" type="curve" smooth="yes"/>
    </contour>
    <contour>
      <point x="36" y="365" type="line" smooth="yes"/>
      <point x="64" y="365" type="line" smooth="yes"/>
      <point x="65" y="365"/>
      <point x="65" y="365"/>
      <point x="65" y="364" type="curve" smooth="yes"/>
      <point x="65" y="336" type="line" smooth="yes"/>
      <point x="65" y="335"/>
      <point x="65" y="335"/>
      <point x="64" y="335" type="curve" smooth="yes"/>
      <point x="36" y="335" type="line" smooth="yes"/>
      <point x="35" y="335"/>
      <point x="35" y="335"/>
      <point x="35" y="336" type="curve" smooth="yes"/>
      <point x="35" y="364" type="line" smooth="yes"/>
      <point x="35" y="365"/>
      <point x="35" y="365"/>
      <point x="36" y="365" type="curve" smooth="yes"/>
    </contour>
    <contour>
      <point x="136" y="365" type="line" smooth="yes"/>
      <point x="164" y="365" type="line" smooth="yes"/>
      <point x="165" y="365"/>
      <point x="165" y="365"/>
      <point x="165" y="364" type="curve" smooth="yes"/>
      <point x="165" y="336" type="line" smooth="yes"/>
      <point x="165" y="335"/>
      <point x="165" y="335"/>
      <point x="164" y="335" type="curve" smooth="yes"/>
      <point x="136" y="335" type="line" smooth="yes"/>
      <point x="135" y="335"/>
      <point x="135" y="335"/>
      <point x="135" y="336" type="curve" smooth="yes"/>
      <point x="135" y="364" type="line" smooth="yes"/>
      <point x="135" y="365"/>
      <point x="135" y="365"/>
      <point x="136" y="365" type="curve" smooth="yes"/>
    </contour>
    <contour>
      <point x="236" y="365" type="line" smooth="yes"/>
      <point x="264" y="365" type="line" smooth="yes"/>
      <point x="265" y="365"/>
      <point x="265" y="365"/>
      <point x="265" y="364" type="curve" smooth="yes"/>
      <point x="265" y="336" type="line" smooth="yes"/>
      <point x="265" y="335"/>
      <point x="265" y="335"/>
      <point x="264" y="335" type="curve" smooth="yes"/>
      <point x="236" y="335" type="line" smooth="yes"/>
      <point x="235" y="335"/>
      <point x="235" y="335"/>
      <point x="235" y="336" type="curve" smooth="yes"/>
      <point x="235" y="364" type="line" smooth="yes"/>
      <point x="235" y="365"/>
      <point x="235" y="365"/>
      <point x="236" y="365" type="curve" smooth="yes"/>
    </contour>
    <contour>
      <point x="336" y="365" type="line" smooth="yes"/>
      <point x="364" y="365" type="line" smooth="yes"/>
      <point x="365" y="365"/>
      <point x="365" y="365"/>
      <point x="365" y="364" type="curve" smooth="yes"/>
      <point x="365" y="336" type="line" smooth="yes"/>
      <point x="365" y="335"/>
      <point x="365" y="335"/>
      <point x="364" y="335" type="curve" smooth="yes"/>
      <point x="336" y="335" type="line" smooth="yes"/>
      <point x="335" y="335"/>
      <point x="335" y="335"/>
      <point x="335" y="336" type="curve" smooth="yes"/>
      <point x="335" y="364" type="line" smooth="yes"/>
      <point x="335" y="365"/>
      <point x="335" y="365"/>
      <point x="336" y="365" type="curve" smooth="yes"/>
    </contour>
    <contour>
      <point x="36" y="265" type="line" smooth="yes"/>
      <point x="64" y="265" type="line" smooth="yes"/>
      <point x="65" y="265"/>
      <point x="65" y="265"/>
      <point x="65" y="264" type="curve" smooth="yes"/>
      <point x="65" y="236" type="line" smooth="yes"/>
      <point x="65" y="235"/>
      <point x="65" y="235"/>
      <point x="64" y="235" type="curve" smooth="yes"/>
      <point x="36" y="235" type="line" smooth="yes"/>
      <point x="35" y="235"/>
      <point x="35" y="235"/>
      <point x="35" y="236" type="curve" smooth="yes"/>
      <point x="35" y="264" type="line" smooth="yes"/>
      <point x="35" y="265"/>
      <point x="35" y="265"/>
      <point x="36" y="265" type="curve" smooth="yes"/>
    </contour>
    <contour>
      <point x="36" y="165" type="line" smooth="yes"/>
      <point x="64" y="165" type="line" smooth="yes"/>
      <point x="65" y="165"/>
      <point x="65" y="165"/>
      <point x="65" y="164" type="curve" smooth="yes"/>
      <point x="65" y="136" type="line" smooth="yes"/>
      <point x="65" y="135"/>
      <point x="65" y="135"/>
      <point x="64" y="135" type="curve" smooth="yes"/>
      <point x="36" y="135" type="line" smooth="yes"/>
      <point x="35" y="135"/>
      <point x="35" y="135"/>
      <point x="35" y="136" type="curve" smooth="yes"/>
      <point x="35" y="164" type="line" smooth="yes"/>
      <point x="35" y="165"/>
      <point x="35" y="165"/>
      <point x="36" y="165" type="curve" smooth="yes"/>
    </contour>
    <contour>
      <point x="36" y="65" type="line" smooth="yes"/>
      <point x="64" y="65" type="line" smooth="yes"/>
      <point x="65" y="65"/>
      <point x="65" y="65"/>
      <point x="65" y="64" type="curve" smooth="yes"/>
      <point x="65" y="36" type="line" smooth="yes"/>
      <point x="65" y="35"/>
      <point x="65" y="35"/>
      <point x="64" y="35" type="curve" smooth="yes"/>
      <point x="36" y="35" type="line" smooth="yes"/>
      <point x="35" y="35"/>
      <point x="35" y="35"/>
      <point x="35" y="36" type="curve" smooth="yes"/>
      <point x="35" y="64" type="line" smooth="yes"/>
      <point x="35" y="65"/>
      <point x="35" y="65"/>
      <point x="36" y="65" type="curve" smooth="yes"/>
    </contour>
  </outline>
</glyph>
<glyph name="divide" format="2">
  <advance width="600"/>
  <unicode hex="00F7"/>
  <outline>
    <contour>
      <point x="236" y="565" type="line" smooth="yes"/>
      <point x="264" y="565" type="line" smooth="yes"/>
      <point x="265" y="565"/>
      <point x="265" y="565"/>
      <point x="265" y="564" type="curve" smooth="yes"/>
      <point x="265" y="536" type="line" smooth="yes"/>
      <point x="265" y="535"/>
      <point x="265" y="535"/>
      <point x="264" y="535" type="curve" smooth="yes"/>
      <point x="236" y="535" type="line" smooth="yes"/>
      <point x="235" y="535"/>
      <point x="235" y="535"/>
      <point x="235" y="536" type="curve" smooth="yes"/>
      <point x="235" y="564" type="line" smooth="yes"/>
      <point x="235" y="565"/>
      <point x="235" y="565"/>
      <point x="236" y="565" type="curve" smooth="yes"/>
    </contour>
    <contour>
      <point x="36" y="365" type="line" smooth="yes"/>
      <point x="64" y="365" type="line" smooth="yes"/>
      <point x="65" y="365"/>
      <point x="65" y="365"/>
      <point x="65" y="364" type="curve" smooth="yes"/>
      <point x="65" y="336" type="line" smooth="yes"/>
      <point x="65" y="335"/>
      <point x="65" y="335"/>
      <point x="64" y="335" type="curve" smooth="yes"/>
      <point x="36" y="335" type="line" smooth="yes"/>
      <point x="35" y="335"/>
      <point x="35" y="335"/>
      <point x="35" y="336" type="curve" smooth="yes"/>
      <point x="35" y="364" type="line" smooth="yes"/>
      <point x="35" y="365"/>
      <point x="35" y="365"/>
      <point x="36" y="365" type="curve" smooth="yes"/>
    </contour>
    <contour>
      <point x="136" y="365" type="line" smooth="yes"/>
      <point x="164" y="365" type="line" smooth="yes"/>
      <point x="165" y="365"/>
      <point x="165" y="365"/>
      <point x="165" y="364" type="curve" smooth="yes"/>
      <point x="165" y="336" type="line" smooth="yes"/>
      <point x="165" y="335"/>
      <point x="165" y="335"/>
      <point x="164" y="335" type="curve" smooth="yes"/>
      <point x="136" y="335" type="line" smooth="yes"/>
      <point x="135" y="335"/>
      <point x="135" y="335"/>
      <point x="135" y="336" type="curve" smooth="yes"/>
      <point x="135" y="364" type="line" smooth="yes"/>
      <point x="135" y="365"/>
      <point x="135" y="365"/>
      <point x="136" y="365" type="curve" smooth="yes"/>
    </contour>
    <contour>
      <point x="236" y="365" type="line" smooth="yes"/>
      <point x="264" y="365" type="line" smooth="yes"/>
      <point x="265" y="365"/>
      <point x="265" y="365"/>
      <point x="265" y="364" type="curve" smooth="yes"/>
      <point x="265" y="336" type="line" smooth="yes"/>
      <point x="265" y="335"/>
      <point x="265" y="335"/>
      <point x="264" y="335" type="curve" smooth="yes"/>
      <point x="236" y="335" type="line" smooth="yes"/>
      <point x="235" y="335"/>
      <point x="235" y="335"/>
      <point x="235" y="336" type="curve" smooth="yes"/>
      <point x="235" y="364" type="line" smooth="yes"/>
      <point x="235" y="365"/>
      <point x="235" y="365"/>
      <point x="236" y="365" type="curve" smooth="yes"/>
    </contour>
    <contour>
      <point x="336" y="365" type="line" smooth="yes"/>
      <point x="364" y="365" type="line" smooth="yes"/>
      <point x="365" y="365"/>
      <point x="365" y="365"/>
      <point x="365" y="364" type="curve" smooth="yes"/>
      <point x="365" y="336" type="line" smooth="yes"/>
      <point x="365" y="335"/>
      <point x="365" y="335"/>
      <point x="364" y="335" type="curve" smooth="yes"/>
      <point x="336" y="335" type="line" smooth="yes"/>
      <point x="335" y="335"/>
      <point x="335" y="335"/>
      <point x="335" y="336" type="curve" smooth="yes"/>
      <point x="335" y="364" type="line" smooth="yes"/>
      <point x="335" y="365"/>
      <point x="335" y="365"/>
      <point x="336" y="365" type="curve" smooth="yes"/>
    </contour>
    <contour>
      <point x="436" y="365" type="line" smooth="yes"/>
      <point x="464" y="365" type="line" smooth="yes"/>
      <point x="465" y="365"/>
      <point x="465" y="365"/>
      <point x="465" y="364" type="curve" smooth="yes"/>
      <point x="465" y="336" type="line" smooth="yes"/>
      <point x="465" y="335"/>
      <point x="465" y="335"/>
      <point x="464" y="335" type="curve" smooth="yes"/>
      <point x="436" y="335" type="line" smooth="yes"/>
      <point x="435" y="335"/>
      <point x="435" y="335"/>
      <point x="435" y="336" type="curve" smooth="yes"/>
      <point x="435" y="364" type="line" smooth="yes"/>
      <point x="435" y="365"/>
      <point x="435" y="365"/>
      <point x="436" y="365" type="curve" smooth="yes"/>
    </contour>
    <contour>
      <point x="236" y="165" type="line" smooth="yes"/>
      <point x="264" y="165" type="line" smooth="yes"/>
      <point x="265" y="165"/>
      <point x="265" y="165"/>
      <point x="265" y="164" type="curve" smooth="yes"/>
      <point x="265" y="136" type="line" smooth="yes"/>
      <point x="265" y="135"/>
      <point x="265" y="135"/>
      <point x="264" y="135" type="curve" smooth="yes"/>
      <point x="236" y="135" type="line" smooth="yes"/>
      <point x="235" y="135"/>
      <point x="235" y="135"/>
      <point x="235" y="136" type="curve" smooth="yes"/>
      <point x="235" y="164" type="line" smooth="yes"/>
      <point x="235" y="165"/>
      <point x="235" y="165"/>
      <point x="236" y="165" type="curve" smooth="yes"/>
    </contour>
  </outline>
</glyph>
<glyph name="dotlessi" format="2">
  <advance width="600"/>
  <unicode hex="0131"/>
  <outline>
    <contour>
      <point x="136" y="465" type="line" smooth="yes"/>
      <point x="164" y="465" type="line" smooth="yes"/>
      <point x="165" y="465"/>
      <point x="165" y="465"/>
      <point x="165" y="464" type="curve" smooth="yes"/>
      <point x="165" y="436" type="line" smooth="yes"/>
      <point x="165" y="435"/>
      <point x="165" y="435"/>
      <point x="164" y="435" type="curve" smooth="yes"/>
      <point x="136" y="435" type="line" smooth="yes"/>
      <point x="135" y="435"/>
      <point x="135" y="435"/>
      <point x="135" y="436" type="curve" smooth="yes"/>
      <point x="135" y="464" type="line" smooth="yes"/>
      <point x="135" y="465"/>
      <point x="135" y="465"/>
      <point x="136" y="465" type="curve" smooth="yes"/>
    </contour>
    <contour>
      <point x="236" y="465" type="line" smooth="yes"/>
      <point x="264" y="465" type="line" smooth="yes"/>
      <point x="265" y="465"/>
      <point x="265" y="465"/>
      <point x="265" y="464" type="curve" smooth="yes"/>
      <point x="265" y="436" type="line" smooth="yes"/>
      <point x="265" y="435"/>
      <point x="265" y="435"/>
      <point x="264" y="435" type="curve" smooth="yes"/>
      <point x="236" y="435" type="line" smooth="yes"/>
      <point x="235" y="435"/>
      <point x="235" y="435"/>
      <point x="235" y="436" type="curve" smooth="yes"/>
      <point x="235" y="464" type="line" smooth="yes"/>
      <point x="235" y="465"/>
      <point x="235" y="465"/>
      <point x="236" y="465" type="curve" smooth="yes"/>
    </contour>
    <contour>
      <point x="236" y="365" type="line" smooth="yes"/>
      <point x="264" y="365" type="line" smooth="yes"/>
      <point x="265" y="365"/>
      <point x="265" y="365"/>
      <point x="265" y="364" type="curve" smooth="yes"/>
      <point x="265" y="336" type="line" smooth="yes"/>
      <point x="265" y="335"/>
      <point x="265" y="335"/>
      <point x="264" y="335" type="curve" smooth="yes"/>
      <point x="236" y="335" type="line" smooth="yes"/>
      <point x="235" y="335"/>
      <point x="235" y="335"/>
      <point x="235" y="336" type="curve" smooth="yes"/>
      <point x="235" y="364" type="line" smooth="yes"/>
      <point x="235" y="365"/>
      <point x="235" y="365"/>
      <point x="236" y="365" type="curve" smooth="yes"/>
    </contour>
    <contour>
      <point x="236" y="265" type="line" smooth="yes"/>
      <point x="264" y="265" type="line" smooth="yes"/>
      <point x="265" y="265"/>
      <point x="265" y="265"/>
      <point x="265" y="264" type="curve" smooth="yes"/>
      <point x="265" y="236" type="line" smooth="yes"/>
      <point x="265" y="235"/>
      <point x="265" y="235"/>
      <point x="264" y="235" type="curve" smooth="yes"/>
      <point x="236" y="235" type="line" smooth="yes"/>
      <point x="235" y="235"/>
      <point x="235" y="235"/>
      <point x="235" y="236" type="curve" smooth="yes"/>
      <point x="235" y="264" type="line" smooth="yes"/>
      <point x="235" y="265"/>
      <point x="235" y="265"/>
      <point x="236" y="265" type="curve" smooth="yes"/>
    </contour>
    <contour>
      <point x="236" y="165" type="line" smooth="yes"/>
      <point x="264" y="165" type="line" smooth="yes"/>
      <point x="265" y="165"/>
      <point x="265" y="165"/>
      <point x="265" y="164" type="curve" smooth="yes"/>
      <point x="265" y="136" type="line" smooth="yes"/>
      <point x="265" y="135"/>
      <point x="265" y="135"/>
      <point x="264" y="135" type="curve" smooth="yes"/>
      <point x="236" y="135" type="line" smooth="yes"/>
      <point x="235" y="135"/>
      <point x="235" y="135"/>
      <point x="235" y="136" type="curve" smooth="yes"/>
      <point x="235" y="164" type="line" smooth="yes"/>
      <point x="235" y="165"/>
      <point x="235" y="165"/>
      <point x="236" y="165" type="curve" smooth="yes"/>
    </contour>
    <contour>
      <point x="136" y="65" type="line" smooth="yes"/>
      <point x="164" y="65" type="line" smooth="yes"/>
      <point x="165" y="65"/>
      <point x="165" y="65"/>
      <point x="165" y="64" type="curve" smooth="yes"/>
      <point x="165" y="36" type="line" smooth="yes"/>
      <point x="165" y="35"/>
      <point x="165" y="35"/>
      <point x="164" y="35" type="curve" smooth="yes"/>
      <point x="136" y="35" type="line" smooth="yes"/>
      <point x="135" y="35"/>
      <point x="135" y="35"/>
      <point x="135" y="36" type="curve" smooth="yes"/>
      <point x="135" y="64" type="line" smooth="yes"/>
      <point x="135" y="65"/>
      <point x="135" y="65"/>
      <point x="136" y="65" type="curve" smooth="yes"/>
    </contour>
    <contour>
      <point x="236" y="65" type="line" smooth="yes"/>
      <point x="264" y="65" type="line" smooth="yes"/>
      <point x="265" y="65"/>
      <point x="265" y="65"/>
      <point x="265" y="64" type="curve" smooth="yes"/>
      <point x="265" y="36" type="line" smooth="yes"/>
      <point x="265" y="35"/>
      <point x="265" y="35"/>
      <point x="264" y="35" type="curve" smooth="yes"/>
      <point x="236" y="35" type="line" smooth="yes"/>
      <point x="235" y="35"/>
      <point x="235" y="35"/>
      <point x="235" y="36" type="curve" smooth="yes"/>
      <point x="235" y="64" type="line" smooth="yes"/>
      <point x="235" y="65"/>
      <point x="235" y="65"/>
      <point x="236" y="65" type="curve" smooth="yes"/>
    </contour>
    <contour>
      <point x="336" y="65" type="line" smooth="yes"/>
      <point x="364" y="65" type="line" smooth="yes"/>
      <point x="365" y="65"/>
      <point x="365" y="65"/>
      <point x="365" y="64" type="curve" smooth="yes"/>
      <point x="365" y="36" type="line" smooth="yes"/>
      <point x="365" y="35"/>
      <point x="365" y="35"/>
      <point x="364" y="35" type="curve" smooth="yes"/>
      <point x="336" y="35" type="line" smooth="yes"/>
      <point x="335" y="35"/>
      <point x="335" y="35"/>
      <point x="335" y="36" type="curve" smooth="yes"/>
      <point x="335" y="64" type="line" smooth="yes"/>
      <point x="335" y="65"/>
      <point x="335" y="65"/>
      <point x="336" y="65" type="curve" smooth="yes"/>
    </contour>
  </outline>
</glyph>
<glyph name="breve" format="2">
  <advance width="600"/>
  <unicode hex="02D8"/>
  <outline>
    <contour>
      <point x="36" y="765" type="line" smooth="yes"/>
      <point x="64" y="765" type="line" smooth="yes"/>
      <point x="65" y="765"/>
      <point x="65" y="765"/>
      <point x="65" y="764" type="curve" smooth="yes"/>
      <point x="65" y="736" type="line" smooth="yes"/>
      <point x="65" y="735"/>
      <point x="65" y="735"/>
      <point x="64" y="735" type="curve" smooth="yes"/>
      <point x="36" y="735" type="line" smooth="yes"/>
      <point x="35" y="735"/>
      <point x="35" y="735"/>
      <point x="35" y="736" type="curve" smooth="yes"/>
      <point x="35" y="764" type="line" smooth="yes"/>
      <point x="35" y="765"/>
      <point x="35" y="765"/>
      <point x="36" y="765" type="curve" smooth="yes"/>
    </contour>
    <contour>
      <point x="436" y="765" type="line" smooth="yes"/>
      <point x="464" y="765" type="line" smooth="yes"/>
      <point x="465" y="765"/>
      <point x="465" y="765"/>
      <point x="465" y="764" type="curve" smooth="yes"/>
      <point x="465" y="736" type="line" smooth="yes"/>
      <point x="465" y="735"/>
      <point x="465" y="735"/>
      <point x="464" y="735" type="curve" smooth="yes"/>
      <point x="436" y="735" type="line" smooth="yes"/>
      <point x="435" y="735"/>
      <point x="435" y="735"/>
      <point x="435" y="736" type="curve" smooth="yes"/>
      <point x="435" y="764" type="line" smooth="yes"/>
      <point x="435" y="765"/>
      <point x="435" y="765"/>
      <point x="436" y="765" type="curve" smooth="yes"/>
    </contour>
    <contour>
      <point x="136" y="665" type="line" smooth="yes"/>
      <point x="164" y="665" type="line" smooth="yes"/>
      <point x="165" y="665"/>
      <point x="165" y="665"/>
      <point x="165" y="664" type="curve" smooth="yes"/>
      <point x="165" y="636" type="line" smooth="yes"/>
      <point x="165" y="635"/>
      <point x="165" y="635"/>
      <point x="164" y="635" type="curve" smooth="yes"/>
      <point x="136" y="635" type="line" smooth="yes"/>
      <point x="135" y="635"/>
      <point x="135" y="635"/>
      <point x="135" y="636" type="curve" smooth="yes"/>
      <point x="135" y="664" type="line" smooth="yes"/>
      <point x="135" y="665"/>
      <point x="135" y="665"/>
      <point x="136" y="665" type="curve" smooth="yes"/>
    </contour>
    <contour>
      <point x="236" y="665" type="line" smooth="yes"/>
      <point x="264" y="665" type="line" smooth="yes"/>
      <point x="265" y="665"/>
      <point x="265" y="665"/>
      <point x="265" y="664" type="curve" smooth="yes"/>
      <point x="265" y="636" type="line" smooth="yes"/>
      <point x="265" y="635"/>
      <point x="265" y="635"/>
      <point x="264" y="635" type="curve" smooth="yes"/>
      <point x="236" y="635" type="line" smooth="yes"/>
      <point x="235" y="635"/>
      <point x="235" y="635"/>
      <point x="235" y="636" type="curve" smooth="yes"/>
      <point x="235" y="664" type="line" smooth="yes"/>
      <point x="235" y="665"/>
      <point x="235" y="665"/>
      <point x="236" y="665" type="curve" smooth="yes"/>
    </contour>
    <contour>
      <point x="336" y="665" type="line" smooth="yes"/>
      <point x="364" y="665" type="line" smooth="yes"/>
      <point x="365" y="665"/>
      <point x="365" y="665"/>
      <point x="365" y="664" type="curve" smooth="yes"/>
      <point x="365" y="636" type="line" smooth="yes"/>
      <point x="365" y="635"/>
      <point x="365" y="635"/>
      <point x="364" y="635" type="curve" smooth="yes"/>
      <point x="336" y="635" type="line" smooth="yes"/>
      <point x="335" y="635"/>
      <point x="335" y="635"/>
      <point x="335" y="636" type="curve" smooth="yes"/>
      <point x="335" y="664" type="line" smooth="yes"/>
      <point x="335" y="665"/>
      <point x="335" y="665"/>
      <point x="336" y="665" type="curve" smooth="yes"/>
    </contour>
  </outline>
</glyph>
<glyph name="ring" format="2">
  <advance width="600"/>
  <unicode hex="02DA"/>
  <outline>
    <contour>
      <point x="236" y="765" type="line" smooth="yes"/>
      <point x="264" y="765" type="line" smooth="yes"/>
      <point x="265" y="765"/>
      <point x="265" y="765"/>
      <point x="265" y="764" type="curve" smooth="yes"/>
      <point x="265" y="736" type="line" smooth="yes"/>
      <point x="265" y="735"/>
      <point x="265" y="735"/>
      <point x="264" y="735" type="curve" smooth="yes"/>
      <point x="236" y="735" type="line" smooth="yes"/>
      <point x="235" y="735"/>
      <point x="235" y="735"/>
      <point x="235" y="736" type="curve" smooth="yes"/>
      <point x="235" y="764" type="line" smooth="yes"/>
      <point x="235" y="765"/>
      <point x="235" y="765"/>
      <point x="236" y="765" type="curve" smooth="yes"/>
    </contour>
    <contour>
      <point x="136" y="665" type="line" smooth="yes"/>
      <point x="164" y="665" type="line" smooth="yes"/>
      <point x="165" y="665"/>
      <point x="165" y="665"/>
      <point x="165" y="664" type="curve" smooth="yes"/>
      <point x="165" y="636" type="line" smooth="yes"/>
      <point x="165" y="635"/>
      <point x="165" y="635"/>
      <point x="164" y="635" type="curve" smooth="yes"/>
      <point x="136" y="635" type="line" smooth="yes"/>
      <point x="135" y="635"/>
      <point x="135" y="635"/>
      <point x="135" y="636" type="curve" smooth="yes"/>
      <point x="135" y="664" type="line" smooth="yes"/>
      <point x="135" y="665"/>
      <point x="135" y="665"/>
      <point x="136" y="665" type="curve" smooth="yes"/>
    </contour>
    <contour>
      <point x="336" y="665" type="line" smooth="yes"/>
      <point x="364" y="665" type="line" smooth="yes"/>
      <point x="365" y="665"/>
      <point x="365" y="665"/>
      <point x="365" y="664" type="curve" smooth="yes"/>
      <point x="365" y="636" type="line" smooth="yes"/>
      <point x="365" y="635"/>
      <point x="365" y="635"/>
      <point x="364" y="635" type="curve" smooth="yes"/>
      <point x="336" y="635" type="line" smooth="yes"/>
      <point x="335" y="635"/>
      <point x="335" y="635"/>
      <point x="335" y="636" type="curve" smooth="yes"/>
      <point x="335" y="664" type="line" smooth="yes"/>
      <point x="335" y="665"/>
      <point x="335" y="665"/>
      <point x="336" y="665" type="curve" smooth="yes"/>
    </contour>
    <contour>
      <point x="236" y="565" type="line" smooth="yes"/>
      <point x="264" y="565" type="line" smooth="yes"/>
      <point x="265" y="565"/>
      <point x="265" y="565"/>
      <point x="265" y="564" type="curve" smooth="yes"/>
      <point x="265" y="536" type="line" smooth="yes"/>
      <point x="265" y="535"/>
      <point x="265" y="535"/>
      <point x="264" y="535" type="curve" smooth="yes"/>
      <point x="236" y="535" type="line" smooth="yes"/>
      <point x="235" y="535"/>
      <point x="235" y="535"/>
      <point x="235" y="536" type="curve" smooth="yes"/>
      <point x="235" y="564" type="line" smooth="yes"/>
      <point x="235" y="565"/>
      <point x="235" y="565"/>
      <point x="236" y="565" type="curve" smooth="yes"/>
    </contour>
  </outline>
</glyph>
<glyph name="hungarumlaut" format="2">
  <advance width="600"/>
  <unicode hex="02DD"/>
  <outline>
    <contour>
      <point x="136" y="765" type="line" smooth="yes"/>
      <point x="164" y="765" type="line" smooth="yes"/>
      <point x="165" y="765"/>
      <point x="165" y="765"/>
      <point x="165" y="764" type="curve" smooth="yes"/>
      <point x="165" y="736" type="line" smooth="yes"/>
      <point x="165" y="735"/>
      <point x="165" y="735"/>
      <point x="164" y="735" type="curve" smooth="yes"/>
      <point x="136" y="735" type="line" smooth="yes"/>
      <point x="135" y="735"/>
      <point x="135" y="735"/>
      <point x="135" y="736" type="curve" smooth="yes"/>
      <point x="135" y="764" type="line" smooth="yes"/>
      <point x="135" y="765"/>
      <point x="135" y="765"/>
      <point x="136" y="765" type="curve" smooth="yes"/>
    </contour>
    <contour>
      <point x="436" y="765" type="line" smooth="yes"/>
      <point x="464" y="765" type="line" smooth="yes"/>
      <point x="465" y="765"/>
      <point x="465" y="765"/>
      <point x="465" y="764" type="curve" smooth="yes"/>
      <point x="465" y="736" type="line" smooth="yes"/>
      <point x="465" y="735"/>
      <point x="465" y="735"/>
      <point x="464" y="735" type="curve" smooth="yes"/>
      <point x="436" y="735" type="line" smooth="yes"/>
      <point x="435" y="735"/>
      <point x="435" y="735"/>
      <point x="435" y="736" type="curve" smooth="yes"/>
      <point x="435" y="764" type="line" smooth="yes"/>
      <point x="435" y="765"/>
      <point x="435" y="765"/>
      <point x="436" y="765" type="curve" smooth="yes"/>
    </contour>
    <contour>
      <point x="36" y="665" type="line" smooth="yes"/>
      <point x="64" y="665" type="line" smooth="yes"/>
      <point x="65" y="665"/>
      <point x="65" y="665"/>
      <point x="65" y="664" type="curve" smooth="yes"/>
      <point x="65" y="636" type="line" smooth="yes"/>
      <point x="65" y="635"/>
      <point x="65" y="635"/>
      <point x="64" y="635" type="curve" smooth="yes"/>
      <point x="36" y="635" type="line" smooth="yes"/>
      <point x="35" y="635"/>
      <point x="35" y="635"/>
      <point x="35" y="636" type="curve" smooth="yes"/>
      <point x="35" y="664" type="line" smooth="yes"/>
      <point x="35" y="665"/>
      <point x="35" y="665"/>
      <point x="36" y="665" type="curve" smooth="yes"/>
    </contour>
    <contour>
      <point x="336" y="665" type="line" smooth="yes"/>
      <point x="364" y="665" type="line" smooth="yes"/>
      <point x="365" y="665"/>
      <point x="365" y="665"/>
      <point x="365" y="664" type="curve" smooth="yes"/>
      <point x="365" y="636" type="line" smooth="yes"/>
      <point x="365" y="635"/>
      <point x="365" y="635"/>
      <point x="364" y="635" type="curve" smooth="yes"/>
      <point x="336" y="635" type="line" smooth="yes"/>
      <point x="335" y="635"/>
      <point x="335" y="635"/>
      <point x="335" y="636" type="curve" smooth="yes"/>
      <point x="335" y="664" type="line" smooth="yes"/>
      <point x="335" y="665"/>
      <point x="335" y="665"/>
      <point x="336" y="665" type="curve" smooth="yes"/>
    </contour>
  </outline>
</glyph>
<glyph name="uni0304" format="2">
  <advance width="600"/>
  <unicode hex="0304"/>
  <outline>
    <contour>
      <point x="136" y="765" type="line" smooth="yes"/>
      <point x="164" y="765" type="line" smooth="yes"/>
      <point x="165" y="765"/>
      <point x="165" y="765"/>
      <point x="165" y="764" type="curve" smooth="yes"/>
      <point x="165" y="736" type="line" smooth="yes"/>
      <point x="165" y="735"/>
      <point x="165" y="735"/>
      <point x="164" y="735" type="curve" smooth="yes"/>
      <point x="136" y="735" type="line" smooth="yes"/>
      <point x="135" y="735"/>
      <point x="135" y="735"/>
      <point x="135" y="736" type="curve" smooth="yes"/>
      <point x="135" y="764" type="line" smooth="yes"/>
      <point x="135" y="765"/>
      <point x="135" y="765"/>
      <point x="136" y="765" type="curve" smooth="yes"/>
    </contour>
    <contour>
      <point x="236" y="765" type="line" smooth="yes"/>
      <point x="264" y="765" type="line" smooth="yes"/>
      <point x="265" y="765"/>
      <point x="265" y="765"/>
      <point x="265" y="764" type="curve" smooth="yes"/>
      <point x="265" y="736" type="line" smooth="yes"/>
      <point x="265" y="735"/>
      <point x="265" y="735"/>
      <point x="264" y="735" type="curve" smooth="yes"/>
      <point x="236" y="735" type="line" smooth="yes"/>
      <point x="235" y="735"/>
      <point x="235" y="735"/>
      <point x="235" y="736" type="curve" smooth="yes"/>
      <point x="235" y="764" type="line" smooth="yes"/>
      <point x="235" y="765"/>
      <point x="235" y="765"/>
      <point x="236" y="765" type="curve" smooth="yes"/>
    </contour>
    <contour>
      <point x="336" y="765" type="line" smooth="yes"/>
      <point x="364" y="765" type="line" smooth="yes"/>
      <point x="365" y="765"/>
      <point x="365" y="765"/>
      <point x="365" y="764" type="curve" smooth="yes"/>
      <point x="365" y="736" type="line" smooth="yes"/>
      <point x="365" y="735"/>
      <point x="365" y="735"/>
      <point x="364" y="735" type="curve" smooth="yes"/>
      <point x="336" y="735" type="line" smooth="yes"/>
      <point x="335" y="735"/>
      <point x="335" y="735"/>
      <point x="335" y="736" type="curve" smooth="yes"/>
      <point x="335" y="764" type="line" smooth="yes"/>
      <point x="335" y="765"/>
      <point x="335" y="765"/>
      <point x="336" y="765" type="curve" smooth="yes"/>
    </contour>
  </outline>
</glyph>
<glyph name="uni0307" format="2">
  <advance width="600"/>
  <unicode hex="0307"/>
  <outline>
    <contour>
      <point x="236" y="765" type="line" smooth="yes"/>
      <point x="264" y="765" type="line" smooth="yes"/>
      <point x="265" y="765"/>
      <point x="265" y="765"/>
      <point x="265" y="764" type="curve" smooth="yes"/>
      <point x="265" y="736" type="line" smooth="yes"/>
      <point x="265" y="735"/>
      <point x="265" y="735"/>
      <point x="264" y="735" type="curve" smooth="yes"/>
      <point x="236" y="735" type="line" smooth="yes"/>
      <point x="235" y="735"/>
      <point x="235" y="735"/>
      <point x="235" y="736" type="curve" smooth="yes"/>
      <point x="235" y="764" type="line" smooth="yes"/>
      <point x="235" y="765"/>
      <point x="235" y="765"/>
      <point x="236" y="765" type="curve" smooth="yes"/>
    </contour>
  </outline>
</glyph>
<glyph name="uni0326" format="2">
  <advance width="600"/>
  <unicode hex="0326"/>
  <outline>
    <contour>
      <point x="336" y="-35" type="line" smooth="yes"/>
      <point x="364" y="-35" type="line" smooth="yes"/>
      <point x="365" y="-35"/>
      <point x="365" y="-35"/>
      <point x="365" y="-36" type="curve" smooth="yes"/>
      <point x="365" y="-64" type="line" smooth="yes"/>
      <point x="365" y="-65"/>
      <point x="365" y="-65"/>
      <point x="364" y="-65" type="curve" smooth="yes"/>
      <point x="336" y="-65" type="line" smooth="yes"/>
      <point x="335" y="-65"/>
      <point x="335" y="-65"/>
      <point x="335" y="-64" type="curve" smooth="yes"/>
      <point x="335" y="-36" type="line" smooth="yes"/>
      <point x="335" y="-35"/>
      <point x="335" y="-35"/>
      <point x="336" y="-35" type="curve" smooth="yes"/>
    </contour>
    <contour>
      <point x="236" y="-135" type="line" smooth="yes"/>
      <point x="264" y="-135" type="line" smooth="yes"/>
      <point x="265" y="-135"/>
      <point x="265" y="-135"/>
      <point x="265" y="-136" type="curve" smooth="yes"/>
      <point x="265" y="-164" type="line" smooth="yes"/>
      <point x="265" y="-165"/>
      <point x="265" y="-165"/>
      <point x="264" y="-165" type="curve" smooth="yes"/>
      <point x="236" y="-165" type="line" smooth="yes"/>
      <point x="235" y="-165"/>
      <point x="235" y="-165"/>
      <point x="235" y="-164" type="curve" smooth="yes"/>
      <point x="235" y="-136" type="line" smooth="yes"/>
      <point x="235" y="-135"/>
      <point x="235" y="-135"/>
      <point x="236" y="-135" type="curve" smooth="yes"/>
    </contour>
  </outline>
</glyph>
<glyph name="uni0327" format="2">
  <advance width="600"/>
  <unicode hex="0327"/>
  <outline>
    <contour>
      <point x="236" y="-35" type="line" smooth="yes"/>
      <point x="264" y="-35" type="line" smooth="yes"/>
      <point x="265" y="-35"/>
      <point x="265" y="-35"/>
      <point x="265" y="-36" type="curve" smooth="yes"/>
      <point x="265" y="-64" type="line" smooth="yes"/>
      <point x="265" y="-65"/>
      <point x="265" y="-65"/>
      <point x="264" y="-65" type="curve" smooth="yes"/>
      <point x="236" y="-65" type="line" smooth="yes"/>
      <point x="235" y="-65"/>
      <point x="235" y="-65"/>
      <point x="235" y="-64" type="curve" smooth="yes"/>
      <point x="235" y="-36" type="line" smooth="yes"/>
      <point x="235" y="-35"/>
      <point x="235" y="-35"/>
      <point x="236" y="-35" type="curve" smooth="yes"/>
    </contour>
    <contour>
      <point x="136" y="-135" type="line" smooth="yes"/>
      <point x="164" y="-135" type="line" smooth="yes"/>
      <point x="165" y="-135"/>
      <point x="165" y="-135"/>
      <point x="165" y="-136" type="curve" smooth="yes"/>
      <point x="165" y="-164" type="line" smooth="yes"/>
      <point x="165" y="-165"/>
      <point x="165" y="-165"/>
      <point x="164" y="-165" type="curve" smooth="yes"/>
      <point x="136" y="-165" type="line" smooth="yes"/>
      <point x="135" y="-165"/>
      <point x="135" y="-165"/>
      <point x="135" y="-164" type="curve" smooth="yes"/>
      <point x="135" y="-136" type="line" smooth="yes"/>
      <point x="135" y="-135"/>
      <point x="135" y="-135"/>
      <point x="136" y="-135" type="curve" smooth="yes"/>
    </contour>
  </outline>
</glyph>
<glyph name="ygrave" format="2">
  <advance width="600"/>
  <unicode hex="1EF3"/>
  <outline>
    <contour>
      <point x="136" y="765" type="line" smooth="yes"/>
      <point x="164" y="765" type="line" smooth="yes"/>
      <point x="165" y="765"/>
      <point x="165" y="765"/>
      <point x="165" y="764" type="curve" smooth="yes"/>
      <point x="165" y="736" type="line" smooth="yes"/>
      <point x="165" y="735"/>
      <point x="165" y="735"/>
      <point x="164" y="735" type="curve" smooth="yes"/>
      <point x="136" y="735" type="line" smooth="yes"/>
      <point x="135" y="735"/>
      <point x="135" y="735"/>
      <point x="135" y="736" type="curve" smooth="yes"/>
      <point x="135" y="764" type="line" smooth="yes"/>
      <point x="135" y="765"/>
      <point x="135" y="765"/>
      <point x="136" y="765" type="curve" smooth="yes"/>
    </contour>
    <contour>
      <point x="236" y="665" type="line" smooth="yes"/>
      <point x="264" y="665" type="line" smooth="yes"/>
      <point x="265" y="665"/>
      <point x="265" y="665"/>
      <point x="265" y="664" type="curve" smooth="yes"/>
      <point x="265" y="636" type="line" smooth="yes"/>
      <point x="265" y="635"/>
      <point x="265" y="635"/>
      <point x="264" y="635" type="curve" smooth="yes"/>
      <point x="236" y="635" type="line" smooth="yes"/>
      <point x="235" y="635"/>
      <point x="235" y="635"/>
      <point x="235" y="636" type="curve" smooth="yes"/>
      <point x="235" y="664" type="line" smooth="yes"/>
      <point x="235" y="665"/>
      <point x="235" y="665"/>
      <point x="236" y="665" type="curve" smooth="yes"/>
    </contour>
    <contour>
      <point x="36" y="465" type="line" smooth="yes"/>
      <point x="64" y="465" type="line" smooth="yes"/>
      <point x="65" y="465"/>
      <point x="65" y="465"/>
      <point x="65" y="464" type="curve" smooth="yes"/>
      <point x="65" y="436" type="line" smooth="yes"/>
      <point x="65" y="435"/>
      <point x="65" y="435"/>
      <point x="64" y="435" type="curve" smooth="yes"/>
      <point x="36" y="435" type="line" smooth="yes"/>
      <point x="35" y="435"/>
      <point x="35" y="435"/>
      <point x="35" y="436" type="curve" smooth="yes"/>
      <point x="35" y="464" type="line" smooth="yes"/>
      <point x="35" y="465"/>
      <point x="35" y="465"/>
      <point x="36" y="465" type="curve" smooth="yes"/>
    </contour>
    <contour>
      <point x="436" y="465" type="line" smooth="yes"/>
      <point x="464" y="465" type="line" smooth="yes"/>
      <point x="465" y="465"/>
      <point x="465" y="465"/>
      <point x="465" y="464" type="curve" smooth="yes"/>
      <point x="465" y="436" type="line" smooth="yes"/>
      <point x="465" y="435"/>
      <point x="465" y="435"/>
      <point x="464" y="435" type="curve" smooth="yes"/>
      <point x="436" y="435" type="line" smooth="yes"/>
      <point x="435" y="435"/>
      <point x="435" y="435"/>
      <point x="435" y="436" type="curve" smooth="yes"/>
      <point x="435" y="464" type="line" smooth="yes"/>
      <point x="435" y="465"/>
      <point x="435" y="465"/>
      <point x="436" y="465" type="curve" smooth="yes"/>
    </contour>
    <contour>
      <point x="36" y="365" type="line" smooth="yes"/>
      <point x="64" y="365" type="line" smooth="yes"/>
      <point x="65" y="365"/>
      <point x="65" y="365"/>
      <point x="65" y="364" type="curve" smooth="yes"/>
      <point x="65" y="336" type="line" smooth="yes"/>
      <point x="65" y="335"/>
      <point x="65" y="335"/>
      <point x="64" y="335" type="curve" smooth="yes"/>
      <point x="36" y="335" type="line" smooth="yes"/>
      <point x="35" y="335"/>
      <point x="35" y="335"/>
      <point x="35" y="336" type="curve" smooth="yes"/>
      <point x="35" y="364" type="line" smooth="yes"/>
      <point x="35" y="365"/>
      <point x="35" y="365"/>
      <point x="36" y="365" type="curve" smooth="yes"/>
    </contour>
    <contour>
      <point x="436" y="365" type="line" smooth="yes"/>
      <point x="464" y="365" type="line" smooth="yes"/>
      <point x="465" y="365"/>
      <point x="465" y="365"/>
      <point x="465" y="364" type="curve" smooth="yes"/>
      <point x="465" y="336" type="line" smooth="yes"/>
      <point x="465" y="335"/>
      <point x="465" y="335"/>
      <point x="464" y="335" type="curve" smooth="yes"/>
      <point x="436" y="335" type="line" smooth="yes"/>
      <point x="435" y="335"/>
      <point x="435" y="335"/>
      <point x="435" y="336" type="curve" smooth="yes"/>
      <point x="435" y="364" type="line" smooth="yes"/>
      <point x="435" y="365"/>
      <point x="435" y="365"/>
      <point x="436" y="365" type="curve" smooth="yes"/>
    </contour>
    <contour>
      <point x="36" y="265" type="line" smooth="yes"/>
      <point x="64" y="265" type="line" smooth="yes"/>
      <point x="65" y="265"/>
      <point x="65" y="265"/>
      <point x="65" y="264" type="curve" smooth="yes"/>
      <point x="65" y="236" type="line" smooth="yes"/>
      <point x="65" y="235"/>
      <point x="65" y="235"/>
      <point x="64" y="235" type="curve" smooth="yes"/>
      <point x="36" y="235" type="line" smooth="yes"/>
      <point x="35" y="235"/>
      <point x="35" y="235"/>
      <point x="35" y="236" type="curve" smooth="yes"/>
      <point x="35" y="264" type="line" smooth="yes"/>
      <point x="35" y="265"/>
      <point x="35" y="265"/>
      <point x="36" y="265" type="curve" smooth="yes"/>
    </contour>
    <contour>
      <point x="336" y="265" type="line" smooth="yes"/>
      <point x="364" y="265" type="line" smooth="yes"/>
      <point x="365" y="265"/>
      <point x="365" y="265"/>
      <point x="365" y="264" type="curve" smooth="yes"/>
      <point x="365" y="236" type="line" smooth="yes"/>
      <point x="365" y="235"/>
      <point x="365" y="235"/>
      <point x="364" y="235" type="curve" smooth="yes"/>
      <point x="336" y="235" type="line" smooth="yes"/>
      <point x="335" y="235"/>
      <point x="335" y="235"/>
      <point x="335" y="236" type="curve" smooth="yes"/>
      <point x="335" y="264" type="line" smooth="yes"/>
      <point x="335" y="265"/>
      <point x="335" y="265"/>
      <point x="336" y="265" type="curve" smooth="yes"/>
    </contour>
    <contour>
      <point x="436" y="265" type="line" smooth="yes"/>
      <point x="464" y="265" type="line" smooth="yes"/>
      <point x="465" y="265"/>
      <point x="465" y="265"/>
      <point x="465" y="264" type="curve" smooth="yes"/>
      <point x="465" y="236" type="line" smooth="yes"/>
      <point x="465" y="235"/>
      <point x="465" y="235"/>
      <point x="464" y="235" type="curve" smooth="yes"/>
      <point x="436" y="235" type="line" smooth="yes"/>
      <point x="435" y="235"/>
      <point x="435" y="235"/>
      <point x="435" y="236" type="curve" smooth="yes"/>
      <point x="435" y="264" type="line" smooth="yes"/>
      <point x="435" y="265"/>
      <point x="435" y="265"/>
      <point x="436" y="265" type="curve" smooth="yes"/>
    </contour>
    <contour>
      <point x="136" y="165" type="line" smooth="yes"/>
      <point x="164" y="165" type="line" smooth="yes"/>
      <point x="165" y="165"/>
      <point x="165" y="165"/>
      <point x="165" y="164" type="curve" smooth="yes"/>
      <point x="165" y="136" type="line" smooth="yes"/>
      <point x="165" y="135"/>
      <point x="165" y="135"/>
      <point x="164" y="135" type="curve" smooth="yes"/>
      <point x="136" y="135" type="line" smooth="yes"/>
      <point x="135" y="135"/>
      <point x="135" y="135"/>
      <point x="135" y="136" type="curve" smooth="yes"/>
      <point x="135" y="164" type="line" smooth="yes"/>
      <point x="135" y="165"/>
      <point x="135" y="165"/>
      <point x="136" y="165" type="curve" smooth="yes"/>
    </contour>
    <contour>
      <point x="236" y="165" type="line" smooth="yes"/>
      <point x="264" y="165" type="line" smooth="yes"/>
      <point x="265" y="165"/>
      <point x="265" y="165"/>
      <point x="265" y="164" type="curve" smooth="yes"/>
      <point x="265" y="136" type="line" smooth="yes"/>
      <point x="265" y="135"/>
      <point x="265" y="135"/>
      <point x="264" y="135" type="curve" smooth="yes"/>
      <point x="236" y="135" type="line" smooth="yes"/>
      <point x="235" y="135"/>
      <point x="235" y="135"/>
      <point x="235" y="136" type="curve" smooth="yes"/>
      <point x="235" y="164" type="line" smooth="yes"/>
      <point x="235" y="165"/>
      <point x="235" y="165"/>
      <point x="236" y="165" type="curve" smooth="yes"/>
    </contour>
    <contour>
      <point x="436" y="165" type="line" smooth="yes"/>
      <point x="464" y="165" type="line" smooth="yes"/>
      <point x="465" y="165"/>
      <point x="465" y="165"/>
      <point x="465" y="164" type="curve" smooth="yes"/>
      <point x="465" y="136" type="line" smooth="yes"/>
      <point x="465" y="135"/>
      <point x="465" y="135"/>
      <point x="464" y="135" type="curve" smooth="yes"/>
      <point x="436" y="135" type="line" smooth="yes"/>
      <point x="435" y="135"/>
      <point x="435" y="135"/>
      <point x="435" y="136" type="curve" smooth="yes"/>
      <point x="435" y="164" type="line" smooth="yes"/>
      <point x="435" y="165"/>
      <point x="435" y="165"/>
      <point x="436" y="165" type="curve" smooth="yes"/>
    </contour>
    <contour>
      <point x="436" y="65" type="line" smooth="yes"/>
      <point x="464" y="65" type="line" smooth="yes"/>
      <point x="465" y="65"/>
      <point x="465" y="65"/>
      <point x="465" y="64" type="curve" smooth="yes"/>
      <point x="465" y="36" type="line" smooth="yes"/>
      <point x="465" y="35"/>
      <point x="465" y="35"/>
      <point x="464" y="35" type="curve" smooth="yes"/>
      <point x="436" y="35" type="line" smooth="yes"/>
      <point x="435" y="35"/>
      <point x="435" y="35"/>
      <point x="435" y="36" type="curve" smooth="yes"/>
      <point x="435" y="64" type="line" smooth="yes"/>
      <point x="435" y="65"/>
      <point x="435" y="65"/>
      <point x="436" y="65" type="curve" smooth="yes"/>
    </contour>
    <contour>
      <point x="36" y="-35" type="line" smooth="yes"/>
      <point x="64" y="-35" type="line" smooth="yes"/>
      <point x="65" y="-35"/>
      <point x="65" y="-35"/>
      <point x="65" y="-36" type="curve" smooth="yes"/>
      <point x="65" y="-64" type="line" smooth="yes"/>
      <point x="65" y="-65"/>
      <point x="65" y="-65"/>
      <point x="64" y="-65" type="curve" smooth="yes"/>
      <point x="36" y="-65" type="line" smooth="yes"/>
      <point x="35" y="-65"/>
      <point x="35" y="-65"/>
      <point x="35" y="-64" type="curve" smooth="yes"/>
      <point x="35" y="-36" type="line" smooth="yes"/>
      <point x="35" y="-35"/>
      <point x="35" y="-35"/>
      <point x="36" y="-35" type="curve" smooth="yes"/>
    </contour>
    <contour>
      <point x="436" y="-35" type="line" smooth="yes"/>
      <point x="464" y="-35" type="line" smooth="yes"/>
      <point x="465" y="-35"/>
      <point x="465" y="-35"/>
      <point x="465" y="-36" type="curve" smooth="yes"/>
      <point x="465" y="-64" type="line" smooth="yes"/>
      <point x="465" y="-65"/>
      <point x="465" y="-65"/>
      <point x="464" y="-65" type="curve" smooth="yes"/>
      <point x="436" y="-65" type="line" smooth="yes"/>
      <point x="435" y="-65"/>
      <point x="435" y="-65"/>
      <point x="435" y="-64" type="curve" smooth="yes"/>
      <point x="435" y="-36" type="line" smooth="yes"/>
      <point x="435" y="-35"/>
      <point x="435" y="-35"/>
      <point x="436" y="-35" type="curve" smooth="yes"/>
    </contour>
    <contour>
      <point x="136" y="-135" type="line" smooth="yes"/>
      <point x="164" y="-135" type="line" smooth="yes"/>
      <point x="165" y="-135"/>
      <point x="165" y="-135"/>
      <point x="165" y="-136" type="curve" smooth="yes"/>
      <point x="165" y="-164" type="line" smooth="yes"/>
      <point x="165" y="-165"/>
      <point x="165" y="-165"/>
      <point x="164" y="-165" type="curve" smooth="yes"/>
      <point x="136" y="-165" type="line" smooth="yes"/>
      <point x="135" y="-165"/>
      <point x="135" y="-165"/>
      <point x="135" y="-164" type="curve" smooth="yes"/>
      <point x="135" y="-136" type="line" smooth="yes"/>
      <point x="135" y="-135"/>
      <point x="135" y="-135"/>
      <point x="136" y="-135" type="curve" smooth="yes"/>
    </contour>
    <contour>
      <point x="236" y="-135" type="line" smooth="yes"/>
      <point x="264" y="-135" type="line" smooth="yes"/>
      <point x="265" y="-135"/>
      <point x="265" y="-135"/>
      <point x="265" y="-136" type="curve" smooth="yes"/>
      <point x="265" y="-164" type="line" smooth="yes"/>
      <point x="265" y="-165"/>
      <point x="265" y="-165"/>
      <point x="264" y="-165" type="curve" smooth="yes"/>
      <point x="236" y="-165" type="line" smooth="yes"/>
      <point x="235" y="-165"/>
      <point x="235" y="-165"/>
      <point x="235" y="-164" type="curve" smooth="yes"/>
      <point x="235" y="-136" type="line" smooth="yes"/>
      <point x="235" y="-135"/>
      <point x="235" y="-135"/>
      <point x="236" y="-135" type="curve" smooth="yes"/>
    </contour>
    <contour>
      <point x="336" y="-135" type="line" smooth="yes"/>
      <point x="364" y="-135" type="line" smooth="yes"/>
      <point x="365" y="-135"/>
      <point x="365" y="-135"/>
      <point x="365" y="-136" type="curve" smooth="yes"/>
      <point x="365" y="-164" type="line" smooth="yes"/>
      <point x="365" y="-165"/>
      <point x="365" y="-165"/>
      <point x="364" y="-165" type="curve" smooth="yes"/>
      <point x="336" y="-165" type="line" smooth="yes"/>
      <point x="335" y="-165"/>
      <point x="335" y="-165"/>
      <point x="335" y="-164" type="curve" smooth="yes"/>
      <point x="335" y="-136" type="line" smooth="yes"/>
      <point x="335" y="-135"/>
      <point x="335" y="-135"/>
      <point x="336" y="-135" type="curve" smooth="yes"/>
    </contour>
  </outline>
</glyph>
<glyph name="quoteright" format="2">
  <advance width="600"/>
  <unicode hex="2019"/>
  <outline>
    <contour>
      <point x="236" y="665" type="line" smooth="yes"/>
      <point x="264" y="665" type="line" smooth="yes"/>
      <point x="265" y="665"/>
      <point x="265" y="665"/>
      <point x="265" y="664" type="curve" smooth="yes"/>
      <point x="265" y="636" type="line" smooth="yes"/>
      <point x="265" y="635"/>
      <point x="265" y="635"/>
      <point x="264" y="635" type="curve" smooth="yes"/>
      <point x="236" y="635" type="line" smooth="yes"/>
      <point x="235" y="635"/>
      <point x="235" y="635"/>
      <point x="235" y="636" type="curve" smooth="yes"/>
      <point x="235" y="664" type="line" smooth="yes"/>
      <point x="235" y="665"/>
      <point x="235" y="665"/>
      <point x="236" y="665" type="curve" smooth="yes"/>
    </contour>
    <contour>
      <point x="336" y="665" type="line" smooth="yes"/>
      <point x="364" y="665" type="line" smooth="yes"/>
      <point x="365" y="665"/>
      <point x="365" y="665"/>
      <point x="365" y="664" type="curve" smooth="yes"/>
      <point x="365" y="636" type="line" smooth="yes"/>
      <point x="365" y="635"/>
      <point x="365" y="635"/>
      <point x="364" y="635" type="curve" smooth="yes"/>
      <point x="336" y="635" type="line" smooth="yes"/>
      <point x="335" y="635"/>
      <point x="335" y="635"/>
      <point x="335" y="636" type="curve" smooth="yes"/>
      <point x="335" y="664" type="line" smooth="yes"/>
      <point x="335" y="665"/>
      <point x="335" y="665"/>
      <point x="336" y="665" type="curve" smooth="yes"/>
    </contour>
    <contour>
      <point x="336" y="565" type="line" smooth="yes"/>
      <point x="364" y="565" type="line" smooth="yes"/>
      <point x="365" y="565"/>
      <point x="365" y="565"/>
      <point x="365" y="564" type="curve" smooth="yes"/>
      <point x="365" y="536" type="line" smooth="yes"/>
      <point x="365" y="535"/>
      <point x="365" y="535"/>
      <point x="364" y="535" type="curve" smooth="yes"/>
      <point x="336" y="535" type="line" smooth="yes"/>
      <point x="335" y="535"/>
      <point x="335" y="535"/>
      <point x="335" y="536" type="curve" smooth="yes"/>
      <point x="335" y="564" type="line" smooth="yes"/>
      <point x="335" y="565"/>
      <point x="335" y="565"/>
      <point x="336" y="565" type="curve" smooth="yes"/>
    </contour>
    <contour>
      <point x="236" y="465" type="line" smooth="yes"/>
      <point x="264" y="465" type="line" smooth="yes"/>
      <point x="265" y="465"/>
      <point x="265" y="465"/>
      <point x="265" y="464" type="curve" smooth="yes"/>
      <point x="265" y="436" type="line" smooth="yes"/>
      <point x="265" y="435"/>
      <point x="265" y="435"/>
      <point x="264" y="435" type="curve" smooth="yes"/>
      <point x="236" y="435" type="line" smooth="yes"/>
      <point x="235" y="435"/>
      <point x="235" y="435"/>
      <point x="235" y="436" type="curve" smooth="yes"/>
      <point x="235" y="464" type="line" smooth="yes"/>
      <point x="235" y="465"/>
      <point x="235" y="465"/>
      <point x="236" y="465" type="curve" smooth="yes"/>
    </contour>
  </outline>
</glyph>
<glyph name="quotedblleft" format="2">
  <advance width="600"/>
  <unicode hex="201C"/>
  <outline>
    <contour>
      <point x="136" y="665" type="line" smooth="yes"/>
      <point x="164" y="665" type="line" smooth="yes"/>
      <point x="165" y="665"/>
      <point x="165" y="665"/>
      <point x="165" y="664" type="curve" smooth="yes"/>
      <point x="165" y="636" type="line" smooth="yes"/>
      <point x="165" y="635"/>
      <point x="165" y="635"/>
      <point x="164" y="635" type="curve" smooth="yes"/>
      <point x="136" y="635" type="line" smooth="yes"/>
      <point x="135" y="635"/>
      <point x="135" y="635"/>
      <point x="135" y="636" type="curve" smooth="yes"/>
      <point x="135" y="664" type="line" smooth="yes"/>
      <point x="135" y="665"/>
      <point x="135" y="665"/>
      <point x="136" y="665" type="curve" smooth="yes"/>
    </contour>
    <contour>
      <point x="436" y="665" type="line" smooth="yes"/>
      <point x="464" y="665" type="line" smooth="yes"/>
      <point x="465" y="665"/>
      <point x="465" y="665"/>
      <point x="465" y="664" type="curve" smooth="yes"/>
      <point x="465" y="636" type="line" smooth="yes"/>
      <point x="465" y="635"/>
      <point x="465" y="635"/>
      <point x="464" y="635" type="curve" smooth="yes"/>
      <point x="436" y="635" type="line" smooth="yes"/>
      <point x="435" y="635"/>
      <point x="435" y="635"/>
      <point x="435" y="636" type="curve" smooth="yes"/>
      <point x="435" y="664" type="line" smooth="yes"/>
      <point x="435" y="665"/>
      <point x="435" y="665"/>
      <point x="436" y="665" type="curve" smooth="yes"/>
    </contour>
    <contour>
      <point x="36" y="565" type="line" smooth="yes"/>
      <point x="64" y="565" type="line" smooth="yes"/>
      <point x="65" y="565"/>
      <point x="65" y="565"/>
      <point x="65" y="564" type="curve" smooth="yes"/>
      <point x="65" y="536" type="line" smooth="yes"/>
      <point x="65" y="535"/>
      <point x="65" y="535"/>
      <point x="64" y="535" type="curve" smooth="yes"/>
      <point x="36" y="535" type="line" smooth="yes"/>
      <point x="35" y="535"/>
      <point x="35" y="535"/>
      <point x="35" y="536" type="curve" smooth="yes"/>
      <point x="35" y="564" type="line" smooth="yes"/>
      <point x="35" y="565"/>
      <point x="35" y="565"/>
      <point x="36" y="565" type="curve" smooth="yes"/>
    </contour>
    <contour>
      <point x="336" y="565" type="line" smooth="yes"/>
      <point x="364" y="565" type="line" smooth="yes"/>
      <point x="365" y="565"/>
      <point x="365" y="565"/>
      <point x="365" y="564" type="curve" smooth="yes"/>
      <point x="365" y="536" type="line" smooth="yes"/>
      <point x="365" y="535"/>
      <point x="365" y="535"/>
      <point x="364" y="535" type="curve" smooth="yes"/>
      <point x="336" y="535" type="line" smooth="yes"/>
      <point x="335" y="535"/>
      <point x="335" y="535"/>
      <point x="335" y="536" type="curve" smooth="yes"/>
      <point x="335" y="564" type="line" smooth="yes"/>
      <point x="335" y="565"/>
      <point x="335" y="565"/>
      <point x="336" y="565" type="curve" smooth="yes"/>
    </contour>
    <contour>
      <point x="36" y="465" type="line" smooth="yes"/>
      <point x="64" y="465" type="line" smooth="yes"/>
      <point x="65" y="465"/>
      <point x="65" y="465"/>
      <point x="65" y="464" type="curve" smooth="yes"/>
      <point x="65" y="436" type="line" smooth="yes"/>
      <point x="65" y="435"/>
      <point x="65" y="435"/>
      <point x="64" y="435" type="curve" smooth="yes"/>
      <point x="36" y="435" type="line" smooth="yes"/>
      <point x="35" y="435"/>
      <point x="35" y="435"/>
      <point x="35" y="436" type="curve" smooth="yes"/>
      <point x="35" y="464" type="line" smooth="yes"/>
      <point x="35" y="465"/>
      <point x="35" y="465"/>
      <point x="36" y="465" type="curve" smooth="yes"/>
    </contour>
    <contour>
      <point x="136" y="465" type="line" smooth="yes"/>
      <point x="164" y="465" type="line" smooth="yes"/>
      <point x="165" y="465"/>
      <point x="165" y="465"/>
      <point x="165" y="464" type="curve" smooth="yes"/>
      <point x="165" y="436" type="line" smooth="yes"/>
      <point x="165" y="435"/>
      <point x="165" y="435"/>
      <point x="164" y="435" type="curve" smooth="yes"/>
      <point x="136" y="435" type="line" smooth="yes"/>
      <point x="135" y="435"/>
      <point x="135" y="435"/>
      <point x="135" y="436" type="curve" smooth="yes"/>
      <point x="135" y="464" type="line" smooth="yes"/>
      <point x="135" y="465"/>
      <point x="135" y="465"/>
      <point x="136" y="465" type="curve" smooth="yes"/>
    </contour>
    <contour>
      <point x="336" y="465" type="line" smooth="yes"/>
      <point x="364" y="465" type="line" smooth="yes"/>
      <point x="365" y="465"/>
      <point x="365" y="465"/>
      <point x="365" y="464" type="curve" smooth="yes"/>
      <point x="365" y="436" type="line" smooth="yes"/>
      <point x="365" y="435"/>
      <point x="365" y="435"/>
      <point x="364" y="435" type="curve" smooth="yes"/>
      <point x="336" y="435" type="line" smooth="yes"/>
      <point x="335" y="435"/>
      <point x="335" y="435"/>
      <point x="335" y="436" type="curve" smooth="yes"/>
      <point x="335" y="464" type="line" smooth="yes"/>
      <point x="335" y="465"/>
      <point x="335" y="465"/>
      <point x="336" y="465" type="curve" smooth="yes"/>
    </contour>
    <contour>
      <point x="436" y="465" type="line" smooth="yes"/>
      <point x="464" y="465" type="line" smooth="yes"/>
      <point x="465" y="465"/>
      <point x="465" y="465"/>
      <point x="465" y="464" type="curve" smooth="yes"/>
      <point x="465" y="436" type="line" smooth="yes"/>
      <point x="465" y="435"/>
      <point x="465" y="435"/>
      <point x="464" y="435" type="curve" smooth="yes"/>
      <point x="436" y="435" type="line" smooth="yes"/>
      <point x="435" y="435"/>
      <point x="435" y="435"/>
      <point x="435" y="436" type="curve" smooth="yes"/>
      <point x="435" y="464" type="line" smooth="yes"/>
      <point x="435" y="465"/>
      <point x="435" y="465"/>
      <point x="436" y="465" type="curve" smooth="yes"/>
    </contour>
  </outline>
</glyph>
<glyph name="bullet" format="2">
  <advance width="600"/>
  <unicode hex="2022"/>
  <outline>
    <contour>
      <point x="236" y="465" type="line" smooth="yes"/>
      <point x="264" y="465" type="line" smooth="yes"/>
      <point x="265" y="465"/>
      <point x="265" y="465"/>
      <point x="265" y="464" type="curve" smooth="yes"/>
      <point x="265" y="436" type="line" smooth="yes"/>
      <point x="265" y="435"/>
      <point x="265" y="435"/>
      <point x="264" y="435" type="curve" smooth="yes"/>
      <point x="236" y="435" type="line" smooth="yes"/>
      <point x="235" y="435"/>
      <point x="235" y="435"/>
      <point x="235" y="436" type="curve" smooth="yes"/>
      <point x="235" y="464" type="line" smooth="yes"/>
      <point x="235" y="465"/>
      <point x="235" y="465"/>
      <point x="236" y="465" type="curve" smooth="yes"/>
    </contour>
    <contour>
      <point x="336" y="465" type="line" smooth="yes"/>
      <point x="364" y="465" type="line" smooth="yes"/>
      <point x="365" y="465"/>
      <point x="365" y="465"/>
      <point x="365" y="464" type="curve" smooth="yes"/>
      <point x="365" y="436" type="line" smooth="yes"/>
      <point x="365" y="435"/>
      <point x="365" y="435"/>
      <point x="364" y="435" type="curve" smooth="yes"/>
      <point x="336" y="435" type="line" smooth="yes"/>
      <point x="335" y="435"/>
      <point x="335" y="435"/>
      <point x="335" y="436" type="curve" smooth="yes"/>
      <point x="335" y="464" type="line" smooth="yes"/>
      <point x="335" y="465"/>
      <point x="335" y="465"/>
      <point x="336" y="465" type="curve" smooth="yes"/>
    </contour>
    <contour>
      <point x="136" y="365" type="line" smooth="yes"/>
      <point x="164" y="365" type="line" smooth="yes"/>
      <point x="165" y="365"/>
      <point x="165" y="365"/>
      <point x="165" y="364" type="curve" smooth="yes"/>
      <point x="165" y="336" type="line" smooth="yes"/>
      <point x="165" y="335"/>
      <point x="165" y="335"/>
      <point x="164" y="335" type="curve" smooth="yes"/>
      <point x="136" y="335" type="line" smooth="yes"/>
      <point x="135" y="335"/>
      <point x="135" y="335"/>
      <point x="135" y="336" type="curve" smooth="yes"/>
      <point x="135" y="364" type="line" smooth="yes"/>
      <point x="135" y="365"/>
      <point x="135" y="365"/>
      <point x="136" y="365" type="curve" smooth="yes"/>
    </contour>
    <contour>
      <point x="236" y="365" type="line" smooth="yes"/>
      <point x="264" y="365" type="line" smooth="yes"/>
      <point x="265" y="365"/>
      <point x="265" y="365"/>
      <point x="265" y="364" type="curve" smooth="yes"/>
      <point x="265" y="336" type="line" smooth="yes"/>
      <point x="265" y="335"/>
      <point x="265" y="335"/>
      <point x="264" y="335" type="curve" smooth="yes"/>
      <point x="236" y="335" type="line" smooth="yes"/>
      <point x="235" y="335"/>
      <point x="235" y="335"/>
      <point x="235" y="336" type="curve" smooth="yes"/>
      <point x="235" y="364" type="line" smooth="yes"/>
      <point x="235" y="365"/>
      <point x="235" y="365"/>
      <point x="236" y="365" type="curve" smooth="yes"/>
    </contour>
    <contour>
      <point x="336" y="365" type="line" smooth="yes"/>
      <point x="364" y="365" type="line" smooth="yes"/>
      <point x="365" y="365"/>
      <point x="365" y="365"/>
      <point x="365" y="364" type="curve" smooth="yes"/>
      <point x="365" y="336" type="line" smooth="yes"/>
      <point x="365" y="335"/>
      <point x="365" y="335"/>
      <point x="364" y="335" type="curve" smooth="yes"/>
      <point x="336" y="335" type="line" smooth="yes"/>
      <point x="335" y="335"/>
      <point x="335" y="335"/>
      <point x="335" y="336" type="curve" smooth="yes"/>
      <point x="335" y="364" type="line" smooth="yes"/>
      <point x="335" y="365"/>
      <point x="335" y="365"/>
      <point x="336" y="365" type="curve" smooth="yes"/>
    </contour>
    <contour>
      <point x="436" y="365" type="line" smooth="yes"/>
      <point x="464" y="365" type="line" smooth="yes"/>
      <point x="465" y="365"/>
      <point x="465" y="365"/>
      <point x="465" y="364" type="curve" smooth="yes"/>
      <point x="465" y="336" type="line" smooth="yes"/>
      <point x="465" y="335"/>
      <point x="465" y="335"/>
      <point x="464" y="335" type="curve" smooth="yes"/>
      <point x="436" y="335" type="line" smooth="yes"/>
      <point x="435" y="335"/>
      <point x="435" y="335"/>
      <point x="435" y="336" type="curve" smooth="yes"/>
      <point x="435" y="364" type="line" smooth="yes"/>
      <point x="435" y="365"/>
      <point x="435" y="365"/>
      <point x="436" y="365" type="curve" smooth="yes"/>
    </contour>
    <contour>
      <point x="136" y="265" type="line" smooth="yes"/>
      <point x="164" y="265" type="line" smooth="yes"/>
      <point x="165" y="265"/>
      <point x="165" y="265"/>
      <point x="165" y="264" type="curve" smooth="yes"/>
      <point x="165" y="236" type="line" smooth="yes"/>
      <point x="165" y="235"/>
      <point x="165" y="235"/>
      <point x="164" y="235" type="curve" smooth="yes"/>
      <point x="136" y="235" type="line" smooth="yes"/>
      <point x="135" y="235"/>
      <point x="135" y="235"/>
      <point x="135" y="236" type="curve" smooth="yes"/>
      <point x="135" y="264" type="line" smooth="yes"/>
      <point x="135" y="265"/>
      <point x="135" y="265"/>
      <point x="136" y="265" type="curve" smooth="yes"/>
    </contour>
    <contour>
      <point x="236" y="265" type="line" smooth="yes"/>
      <point x="264" y="265" type="line" smooth="yes"/>
      <point x="265" y="265"/>
      <point x="265" y="265"/>
      <point x="265" y="264" type="curve" smooth="yes"/>
      <point x="265" y="236" type="line" smooth="yes"/>
      <point x="265" y="235"/>
      <point x="265" y="235"/>
      <point x="264" y="235" type="curve" smooth="yes"/>
      <point x="236" y="235" type="line" smooth="yes"/>
      <point x="235" y="235"/>
      <point x="235" y="235"/>
      <point x="235" y="236" type="curve" smooth="yes"/>
      <point x="235" y="264" type="line" smooth="yes"/>
      <point x="235" y="265"/>
      <point x="235" y="265"/>
      <point x="236" y="265" type="curve" smooth="yes"/>
    </contour>
    <contour>
      <point x="336" y="265" type="line" smooth="yes"/>
      <point x="364" y="265" type="line" smooth="yes"/>
      <point x="365" y="265"/>
      <point x="365" y="265"/>
      <point x="365" y="264" type="curve" smooth="yes"/>
      <point x="365" y="236" type="line" smooth="yes"/>
      <point x="365" y="235"/>
      <point x="365" y="235"/>
      <point x="364" y="235" type="curve" smooth="yes"/>
      <point x="336" y="235" type="line" smooth="yes"/>
      <point x="335" y="235"/>
      <point x="335" y="235"/>
      <point x="335" y="236" type="curve" smooth="yes"/>
      <point x="335" y="264" type="line" smooth="yes"/>
      <point x="335" y="265"/>
      <point x="335" y="265"/>
      <point x="336" y="265" type="curve" smooth="yes"/>
    </contour>
    <contour>
      <point x="436" y="265" type="line" smooth="yes"/>
      <point x="464" y="265" type="line" smooth="yes"/>
      <point x="465" y="265"/>
      <point x="465" y="265"/>
      <point x="465" y="264" type="curve" smooth="yes"/>
      <point x="465" y="236" type="line" smooth="yes"/>
      <point x="465" y="235"/>
      <point x="465" y="235"/>
      <point x="464" y="235" type="curve" smooth="yes"/>
      <point x="436" y="235" type="line" smooth="yes"/>
      <point x="435" y="235"/>
      <point x="435" y="235"/>
      <point x="435" y="236" type="curve" smooth="yes"/>
      <point x="435" y="264" type="line" smooth="yes"/>
      <point x="435" y="265"/>
      <point x="435" y="265"/>
      <point x="436" y="265" type="curve" smooth="yes"/>
    </contour>
    <contour>
      <point x="236" y="165" type="line" smooth="yes"/>
      <point x="264" y="165" type="line" smooth="yes"/>
      <point x="265" y="165"/>
      <point x="265" y="165"/>
      <point x="265" y="164" type="curve" smooth="yes"/>
      <point x="265" y="136" type="line" smooth="yes"/>
      <point x="265" y="135"/>
      <point x="265" y="135"/>
      <point x="264" y="135" type="curve" smooth="yes"/>
      <point x="236" y="135" type="line" smooth="yes"/>
      <point x="235" y="135"/>
      <point x="235" y="135"/>
      <point x="235" y="136" type="curve" smooth="yes"/>
      <point x="235" y="164" type="line" smooth="yes"/>
      <point x="235" y="165"/>
      <point x="235" y="165"/>
      <point x="236" y="165" type="curve" smooth="yes"/>
    </contour>
    <contour>
      <point x="336" y="165" type="line" smooth="yes"/>
      <point x="364" y="165" type="line" smooth="yes"/>
      <point x="365" y="165"/>
      <point x="365" y="165"/>
      <point x="365" y="164" type="curve" smooth="yes"/>
      <point x="365" y="136" type="line" smooth="yes"/>
      <point x="365" y="135"/>
      <point x="365" y="135"/>
      <point x="364" y="135" type="curve" smooth="yes"/>
      <point x="336" y="135" type="line" smooth="yes"/>
      <point x="335" y="135"/>
      <point x="335" y="135"/>
      <point x="335" y="136" type="curve" smooth="yes"/>
      <point x="335" y="164" type="line" smooth="yes"/>
      <point x="335" y="165"/>
      <point x="335" y="165"/>
      <point x="336" y="165" type="curve" smooth="yes"/>
    </contour>
  </outline>
</glyph>
<glyph name="trademark" format="2">
  <advance width="600"/>
  <unicode hex="2122"/>
  <outline>
    <contour>
      <point x="36" y="765" type="line" smooth="yes"/>
      <point x="64" y="765" type="line" smooth="yes"/>
      <point x="65" y="765"/>
      <point x="65" y="765"/>
      <point x="65" y="764" type="curve" smooth="yes"/>
      <point x="65" y="736" type="line" smooth="yes"/>
      <point x="65" y="735"/>
      <point x="65" y="735"/>
      <point x="64" y="735" type="curve" smooth="yes"/>
      <point x="36" y="735" type="line" smooth="yes"/>
      <point x="35" y="735"/>
      <point x="35" y="735"/>
      <point x="35" y="736" type="curve" smooth="yes"/>
      <point x="35" y="764" type="line" smooth="yes"/>
      <point x="35" y="765"/>
      <point x="35" y="765"/>
      <point x="36" y="765" type="curve" smooth="yes"/>
    </contour>
    <contour>
      <point x="136" y="765" type="line" smooth="yes"/>
      <point x="164" y="765" type="line" smooth="yes"/>
      <point x="165" y="765"/>
      <point x="165" y="765"/>
      <point x="165" y="764" type="curve" smooth="yes"/>
      <point x="165" y="736" type="line" smooth="yes"/>
      <point x="165" y="735"/>
      <point x="165" y="735"/>
      <point x="164" y="735" type="curve" smooth="yes"/>
      <point x="136" y="735" type="line" smooth="yes"/>
      <point x="135" y="735"/>
      <point x="135" y="735"/>
      <point x="135" y="736" type="curve" smooth="yes"/>
      <point x="135" y="764" type="line" smooth="yes"/>
      <point x="135" y="765"/>
      <point x="135" y="765"/>
      <point x="136" y="765" type="curve" smooth="yes"/>
    </contour>
    <contour>
      <point x="236" y="765" type="line" smooth="yes"/>
      <point x="264" y="765" type="line" smooth="yes"/>
      <point x="265" y="765"/>
      <point x="265" y="765"/>
      <point x="265" y="764" type="curve" smooth="yes"/>
      <point x="265" y="736" type="line" smooth="yes"/>
      <point x="265" y="735"/>
      <point x="265" y="735"/>
      <point x="264" y="735" type="curve" smooth="yes"/>
      <point x="236" y="735" type="line" smooth="yes"/>
      <point x="235" y="735"/>
      <point x="235" y="735"/>
      <point x="235" y="736" type="curve" smooth="yes"/>
      <point x="235" y="764" type="line" smooth="yes"/>
      <point x="235" y="765"/>
      <point x="235" y="765"/>
      <point x="236" y="765" type="curve" smooth="yes"/>
    </contour>
    <contour>
      <point x="336" y="765" type="line" smooth="yes"/>
      <point x="364" y="765" type="line" smooth="yes"/>
      <point x="365" y="765"/>
      <point x="365" y="765"/>
      <point x="365" y="764" type="curve" smooth="yes"/>
      <point x="365" y="736" type="line" smooth="yes"/>
      <point x="365" y="735"/>
      <point x="365" y="735"/>
      <point x="364" y="735" type="curve" smooth="yes"/>
      <point x="336" y="735" type="line" smooth="yes"/>
      <point x="335" y="735"/>
      <point x="335" y="735"/>
      <point x="335" y="736" type="curve" smooth="yes"/>
      <point x="335" y="764" type="line" smooth="yes"/>
      <point x="335" y="765"/>
      <point x="335" y="765"/>
      <point x="336" y="765" type="curve" smooth="yes"/>
    </contour>
    <contour>
      <point x="436" y="765" type="line" smooth="yes"/>
      <point x="464" y="765" type="line" smooth="yes"/>
      <point x="465" y="765"/>
      <point x="465" y="765"/>
      <point x="465" y="764" type="curve" smooth="yes"/>
      <point x="465" y="736" type="line" smooth="yes"/>
      <point x="465" y="735"/>
      <point x="465" y="735"/>
      <point x="464" y="735" type="curve" smooth="yes"/>
      <point x="436" y="735" type="line" smooth="yes"/>
      <point x="435" y="735"/>
      <point x="435" y="735"/>
      <point x="435" y="736" type="curve" smooth="yes"/>
      <point x="435" y="764" type="line" smooth="yes"/>
      <point x="435" y="765"/>
      <point x="435" y="765"/>
      <point x="436" y="765" type="curve" smooth="yes"/>
    </contour>
    <contour>
      <point x="536" y="765" type="line" smooth="yes"/>
      <point x="564" y="765" type="line" smooth="yes"/>
      <point x="565" y="765"/>
      <point x="565" y="765"/>
      <point x="565" y="764" type="curve" smooth="yes"/>
      <point x="565" y="736" type="line" smooth="yes"/>
      <point x="565" y="735"/>
      <point x="565" y="735"/>
      <point x="564" y="735" type="curve" smooth="yes"/>
      <point x="536" y="735" type="line" smooth="yes"/>
      <point x="535" y="735"/>
      <point x="535" y="735"/>
      <point x="535" y="736" type="curve" smooth="yes"/>
      <point x="535" y="764" type="line" smooth="yes"/>
      <point x="535" y="765"/>
      <point x="535" y="765"/>
      <point x="536" y="765" type="curve" smooth="yes"/>
    </contour>
    <contour>
      <point x="136" y="665" type="line" smooth="yes"/>
      <point x="164" y="665" type="line" smooth="yes"/>
      <point x="165" y="665"/>
      <point x="165" y="665"/>
      <point x="165" y="664" type="curve" smooth="yes"/>
      <point x="165" y="636" type="line" smooth="yes"/>
      <point x="165" y="635"/>
      <point x="165" y="635"/>
      <point x="164" y="635" type="curve" smooth="yes"/>
      <point x="136" y="635" type="line" smooth="yes"/>
      <point x="135" y="635"/>
      <point x="135" y="635"/>
      <point x="135" y="636" type="curve" smooth="yes"/>
      <point x="135" y="664" type="line" smooth="yes"/>
      <point x="135" y="665"/>
      <point x="135" y="665"/>
      <point x="136" y="665" type="curve" smooth="yes"/>
    </contour>
    <contour>
      <point x="336" y="665" type="line" smooth="yes"/>
      <point x="364" y="665" type="line" smooth="yes"/>
      <point x="365" y="665"/>
      <point x="365" y="665"/>
      <point x="365" y="664" type="curve" smooth="yes"/>
      <point x="365" y="636" type="line" smooth="yes"/>
      <point x="365" y="635"/>
      <point x="365" y="635"/>
      <point x="364" y="635" type="curve" smooth="yes"/>
      <point x="336" y="635" type="line" smooth="yes"/>
      <point x="335" y="635"/>
      <point x="335" y="635"/>
      <point x="335" y="636" type="curve" smooth="yes"/>
      <point x="335" y="664" type="line" smooth="yes"/>
      <point x="335" y="665"/>
      <point x="335" y="665"/>
      <point x="336" y="665" type="curve" smooth="yes"/>
    </contour>
    <contour>
      <point x="436" y="665" type="line" smooth="yes"/>
      <point x="464" y="665" type="line" smooth="yes"/>
      <point x="465" y="665"/>
      <point x="465" y="665"/>
      <point x="465" y="664" type="curve" smooth="yes"/>
      <point x="465" y="636" type="line" smooth="yes"/>
      <point x="465" y="635"/>
      <point x="465" y="635"/>
      <point x="464" y="635" type="curve" smooth="yes"/>
      <point x="436" y="635" type="line" smooth="yes"/>
      <point x="435" y="635"/>
      <point x="435" y="635"/>
      <point x="435" y="636" type="curve" smooth="yes"/>
      <point x="435" y="664" type="line" smooth="yes"/>
      <point x="435" y="665"/>
      <point x="435" y="665"/>
      <point x="436" y="665" type="curve" smooth="yes"/>
    </contour>
    <contour>
      <point x="536" y="665" type="line" smooth="yes"/>
      <point x="564" y="665" type="line" smooth="yes"/>
      <point x="565" y="665"/>
      <point x="565" y="665"/>
      <point x="565" y="664" type="curve" smooth="yes"/>
      <point x="565" y="636" type="line" smooth="yes"/>
      <point x="565" y="635"/>
      <point x="565" y="635"/>
      <point x="564" y="635" type="curve" smooth="yes"/>
      <point x="536" y="635" type="line" smooth="yes"/>
      <point x="535" y="635"/>
      <point x="535" y="635"/>
      <point x="535" y="636" type="curve" smooth="yes"/>
      <point x="535" y="664" type="line" smooth="yes"/>
      <point x="535" y="665"/>
      <point x="535" y="665"/>
      <point x="536" y="665" type="curve" smooth="yes"/>
    </contour>
    <contour>
      <point x="136" y="565" type="line" smooth="yes"/>
      <point x="164" y="565" type="line" smooth="yes"/>
      <point x="165" y="565"/>
      <point x="165" y="565"/>
      <point x="165" y="564" type="curve" smooth="yes"/>
      <point x="165" y="536" type="line" smooth="yes"/>
      <point x="165" y="535"/>
      <point x="165" y="535"/>
      <point x="164" y="535" type="curve" smooth="yes"/>
      <point x="136" y="535" type="line" smooth="yes"/>
      <point x="135" y="535"/>
      <point x="135" y="535"/>
      <point x="135" y="536" type="curve" smooth="yes"/>
      <point x="135" y="564" type="line" smooth="yes"/>
      <point x="135" y="565"/>
      <point x="135" y="565"/>
      <point x="136" y="565" type="curve" smooth="yes"/>
    </contour>
    <contour>
      <point x="336" y="565" type="line" smooth="yes"/>
      <point x="364" y="565" type="line" smooth="yes"/>
      <point x="365" y="565"/>
      <point x="365" y="565"/>
      <point x="365" y="564" type="curve" smooth="yes"/>
      <point x="365" y="536" type="line" smooth="yes"/>
      <point x="365" y="535"/>
      <point x="365" y="535"/>
      <point x="364" y="535" type="curve" smooth="yes"/>
      <point x="336" y="535" type="line" smooth="yes"/>
      <point x="335" y="535"/>
      <point x="335" y="535"/>
      <point x="335" y="536" type="curve" smooth="yes"/>
      <point x="335" y="564" type="line" smooth="yes"/>
      <point x="335" y="565"/>
      <point x="335" y="565"/>
      <point x="336" y="565" type="curve" smooth="yes"/>
    </contour>
    <contour>
      <point x="536" y="565" type="line" smooth="yes"/>
      <point x="564" y="565" type="line" smooth="yes"/>
      <point x="565" y="565"/>
      <point x="565" y="565"/>
      <point x="565" y="564" type="curve" smooth="yes"/>
      <point x="565" y="536" type="line" smooth="yes"/>
      <point x="565" y="535"/>
      <point x="565" y="535"/>
      <point x="564" y="535" type="curve" smooth="yes"/>
      <point x="536" y="535" type="line" smooth="yes"/>
      <point x="535" y="535"/>
      <point x="535" y="535"/>
      <point x="535" y="536" type="curve" smooth="yes"/>
      <point x="535" y="564" type="line" smooth="yes"/>
      <point x="535" y="565"/>
      <point x="535" y="565"/>
      <point x="536" y="565" type="curve" smooth="yes"/>
    </contour>
    <contour>
      <point x="136" y="465" type="line" smooth="yes"/>
      <point x="164" y="465" type="line" smooth="yes"/>
      <point x="165" y="465"/>
      <point x="165" y="465"/>
      <point x="165" y="464" type="curve" smooth="yes"/>
      <point x="165" y="436" type="line" smooth="yes"/>
      <point x="165" y="435"/>
      <point x="165" y="435"/>
      <point x="164" y="435" type="curve" smooth="yes"/>
      <point x="136" y="435" type="line" smooth="yes"/>
      <point x="135" y="435"/>
      <point x="135" y="435"/>
      <point x="135" y="436" type="curve" smooth="yes"/>
      <point x="135" y="464" type="line" smooth="yes"/>
      <point x="135" y="465"/>
      <point x="135" y="465"/>
      <point x="136" y="465" type="curve" smooth="yes"/>
    </contour>
    <contour>
      <point x="336" y="465" type="line" smooth="yes"/>
      <point x="364" y="465" type="line" smooth="yes"/>
      <point x="365" y="465"/>
      <point x="365" y="465"/>
      <point x="365" y="464" type="curve" smooth="yes"/>
      <point x="365" y="436" type="line" smooth="yes"/>
      <point x="365" y="435"/>
      <point x="365" y="435"/>
      <point x="364" y="435" type="curve" smooth="yes"/>
      <point x="336" y="435" type="line" smooth="yes"/>
      <point x="335" y="435"/>
      <point x="335" y="435"/>
      <point x="335" y="436" type="curve" smooth="yes"/>
      <point x="335" y="464" type="line" smooth="yes"/>
      <point x="335" y="465"/>
      <point x="335" y="465"/>
      <point x="336" y="465" type="curve" smooth="yes"/>
    </contour>
    <contour>
      <point x="536" y="465" type="line" smooth="yes"/>
      <point x="564" y="465" type="line" smooth="yes"/>
      <point x="565" y="465"/>
      <point x="565" y="465"/>
      <point x="565" y="464" type="curve" smooth="yes"/>
      <point x="565" y="436" type="line" smooth="yes"/>
      <point x="565" y="435"/>
      <point x="565" y="435"/>
      <point x="564" y="435" type="curve" smooth="yes"/>
      <point x="536" y="435" type="line" smooth="yes"/>
      <point x="535" y="435"/>
      <point x="535" y="435"/>
      <point x="535" y="436" type="curve" smooth="yes"/>
      <point x="535" y="464" type="line" smooth="yes"/>
      <point x="535" y="465"/>
      <point x="535" y="465"/>
      <point x="536" y="465" type="curve" smooth="yes"/>
    </contour>
  </outline>
</glyph>
